<?xml version="1.0" standalone="no"?>
  <!DOCTYPE svg PUBLIC "-//W3C//DTD SVG 1.1//EN" "http://www.w3.org/Graphics/SVG/1.1/DTD/svg11.dtd" >
  <svg>
  <metadata>
  Created by font-carrier
  </metadata>
  <defs>
  <font id="PTSansBold" horiz-adv-x="1232" vert-adv-y="1232" >
    <font-face
      
      font-family="PTSansBold"
      
      font-weight="400"
      
      font-stretch="normal"
      
      units-per-em="1000"
      
      ascent="1018"
      
      descent="-276"
      
    />
      <missing-glyph />

      

      
      <glyph glyph-name="uni21" unicode="&#x21;" d="M100 700L234 700L234 371L208 208L126 208L100 371L100 700M86 66Q86 101 108 121.50Q130 142 166 142Q204 142 226 121.50Q248 101 248 66Q248 31 226 10Q204-11 166-11Q130-11 108 10Q86 31 86 66Z"  horiz-adv-x="294" vert-adv-y="1000"  />

      
      <glyph glyph-name="uni22" unicode="&#x22;" d="M90 700L204 700L168 484L90 484L90 700M238 700L352 700L316 484L238 484L238 700Z"  horiz-adv-x="402" vert-adv-y="1000"  />

      
      <glyph glyph-name="uni23" unicode="&#x23;" d="M289 205L200 205L164 51L57 51L93 205L19 205L41 302L116 302L141 408L69 408L91 505L164 505L199 649L305 649L271 505L360 505L395 649L501 649L467 505L539 505L514 408L444 408L419 302L488 302L464 205L396 205L360 51L253 51L289 205M223 302L312 302L337 408L248 408L223 302Z"  horiz-adv-x="567" vert-adv-y="1000"  />

      
      <glyph glyph-name="uni24" unicode="&#x24;" d="M238-13Q181-11 138-1Q95 9 71 22L110 135Q128 124 160.50 114Q193 104 238 100L238 305Q207 319 176.50 336Q146 353 122 377Q98 401 83.50 434.50Q69 468 69 514Q69 600 114.50 647.50Q160 695 238 709L238 800L342 800L342 713Q386 710 419 701Q452 692 480 680L444 569Q427 577 401 585Q375 593 342 597L342 410Q373 396 404.50 378.50Q436 361 460.50 337Q485 313 500.50 280.50Q516 248 516 203Q516 111 469.50 59.50Q423 8 342-7L342-100L238-100L238-13M386 188Q386 220 360.50 240.50Q335 261 299 278L299 100Q343 105 364.50 128Q386 151 386 188M199 525Q199 495 222.50 475Q246 455 281 438L281 600Q234 598 216.50 577Q199 556 199 525Z"  horiz-adv-x="567" vert-adv-y="1000"  />

      
      <glyph glyph-name="uni25" unicode="&#x25;" d="M51 542Q51 587 64 619Q77 651 100 672Q123 693 155.50 702.50Q188 712 226 712Q264 712 296 703Q328 694 351.50 674Q375 654 388 621.50Q401 589 402 542Q401 495 388 462.50Q375 430 351.50 410Q328 390 296 381Q264 372 226 372Q188 372 155.50 381Q123 390 100 410Q77 430 64 462.50Q51 495 51 542M167 542Q167 456 226 456Q257 456 270.50 474.50Q284 493 285 542Q284 590 270.50 609Q257 628 226 628Q195 628 181 609Q167 590 167 542M457 171Q457 216 470 248Q483 280 506 301Q529 322 561.50 331.50Q594 341 632 341Q670 341 702 332Q734 323 757.50 303Q781 283 794 250.50Q807 218 808 171Q807 124 794 91.50Q781 59 757.50 39Q734 19 702 10Q670 1 632 1Q594 1 561.50 10Q529 19 506 39Q483 59 470 91.50Q457 124 457 171M573 171Q573 85 632 85Q663 85 676.50 103.50Q690 122 691 171Q690 219 676.50 238Q663 257 632 257Q601 257 587 238Q573 219 573 171M677 714L750 648L174-14L101 55L677 714Z"  horiz-adv-x="840" vert-adv-y="1000"  />

      
      <glyph glyph-name="uni26" unicode="&#x26;" d="M92 194Q92 232 104.50 266.50Q117 301 139.50 331Q162 361 193 387Q224 413 260 433Q235 466 219 500Q203 534 203 572Q203 597 212.50 622.50Q222 648 242.50 668.50Q263 689 296 701.50Q329 714 376 714Q422 714 454.50 703Q487 692 507 674Q527 656 536 633Q545 610 545 586Q545 545 516 500.50Q487 456 417 415Q452 361 487 316Q522 271 565 227Q588 252 606.50 289.50Q625 327 639 366L733 316Q727 298 716.50 276.50Q706 255 693.50 233Q681 211 668 191.50Q655 172 644 158Q676 129 700 112.50Q724 96 749 82L680-14Q652-1 622.50 20.50Q593 42 564 70Q528 37 474 11.50Q420-14 341-14Q289-14 243.50 0Q198 14 164.50 41Q131 68 111.50 106.50Q92 145 92 194M486 149Q435 202 393 254.50Q351 307 320 354Q272 317 247 282.50Q222 248 222 205Q222 154 259.50 125Q297 96 358 96Q398 96 433 112.50Q468 129 486 149M333 566Q333 524 369 476Q408 501 425.50 523Q443 545 443 565Q443 589 429.50 603Q416 617 386 617Q359 617 346 603Q333 589 333 566Z"  horiz-adv-x="814" vert-adv-y="1000"  />

      
      <glyph glyph-name="uni27" unicode="&#x27;" d="M90 700L204 700L168 484L90 484L90 700Z"  horiz-adv-x="254" vert-adv-y="1000"  />

      
      <glyph glyph-name="uni28" unicode="&#x28;" d="M227-220Q181-172 149-114.50Q117-57 97.50 3.50Q78 64 69 125.50Q60 187 60 243Q60 298 69 359Q78 420 98 481.50Q118 543 150.50 602Q183 661 230 712L314 658Q279 611 255.50 560Q232 509 217.50 455.50Q203 402 196.50 348Q190 294 190 243Q190 195 197 141Q204 87 219 33.50Q234-20 258-71Q282-122 316-164L227-220Z"  horiz-adv-x="327" vert-adv-y="1000"  />

      
      <glyph glyph-name="uni29" unicode="&#x29;" d="M97 712Q145 664 177 606.50Q209 549 228.50 488.50Q248 428 257 366.50Q266 305 267 247Q266 194 257 133Q248 72 228 10.50Q208-51 175.50-110Q143-169 100-220L11-164Q49-115 73-63.50Q97-12 111 40.50Q125 93 130.50 145.50Q136 198 137 243Q136 297 128.50 350.50Q121 404 106 457.50Q91 511 67.50 561.50Q44 612 13 658L97 712Z"  horiz-adv-x="327" vert-adv-y="1000"  />

      
      <glyph glyph-name="uni2a" unicode="&#x2a;" d="M144 731L172 685L187 626L202 681L230 730L294 695L264 643L216 600L281 616L338 616L338 543L283 543L222 559L272 512L297 470L233 433L206 479L186 543L173 485L144 436L80 473L109 522L154 559L99 543L40 543L40 617L100 617L159 600L108 644L80 694L144 731Z"  horiz-adv-x="378" vert-adv-y="1000"  />

      
      <glyph glyph-name="uni2b" unicode="&#x2b;" d="M43 394L205 394L205 563L322 563L322 394L485 394L485 282L322 282L322 111L205 111L205 282L43 282L43 394Z"  horiz-adv-x="527" vert-adv-y="1000"  />

      
      <glyph glyph-name="uni2c" unicode="&#x2c;" d="M42 64Q42 98 64.50 118Q87 138 120 138Q162 138 186 110Q210 82 210 36Q210-9 196-41.50Q182-74 161.50-95.50Q141-117 117.50-129.50Q94-142 75-148L37-94Q64-83 84-58Q104-33 106-5Q83-8 62.50 9Q42 26 42 64Z"  horiz-adv-x="252" vert-adv-y="1000"  />

      
      <glyph glyph-name="uni2d" unicode="&#x2d;" d="M54 345L305 345L305 230L54 230L54 345Z"  horiz-adv-x="360" vert-adv-y="1000"  />

      
      <glyph glyph-name="uni2e" unicode="&#x2e;" d="M42 66Q42 101 64 121.50Q86 142 122 142Q160 142 182 121.50Q204 101 204 66Q204 31 182 10Q160-11 122-11Q86-11 64 10Q42 31 42 66Z"  horiz-adv-x="246" vert-adv-y="1000"  />

      
      <glyph glyph-name="uni2f" unicode="&#x2f;" d="M333 712L431 668L74-140L-24-94L333 712Z"  horiz-adv-x="408" vert-adv-y="1000"  />

      
      <glyph glyph-name="uni30" unicode="&#x30;" d="M40 351Q40 535 103 624.50Q166 714 284 714Q410 714 469 625.50Q528 537 528 351Q528 166 464.50 76Q401-14 283-14Q158-14 99 80.50Q40 175 40 351M170 351Q170 229 196.50 162.50Q223 96 284 96Q343 96 370.50 157Q398 218 398 351Q398 472 372 538Q346 604 283 604Q223 604 196.50 542Q170 480 170 351Z"  horiz-adv-x="567" vert-adv-y="1000"  />

      
      <glyph glyph-name="uni31" unicode="&#x31;" d="M101 110L240 110L240 505L255 573L207 514L118 453L63 528L291 712L364 712L364 110L500 110L500 0L101 0L101 110Z"  horiz-adv-x="567" vert-adv-y="1000"  />

      
      <glyph glyph-name="uni32" unicode="&#x32;" d="M475 529Q475 478 456.50 426Q438 374 409.50 324Q381 274 346.50 227.50Q312 181 279 142L226 101L226 96L298 110L490 110L490 0L69 0L69 67Q93 92 123 125.50Q153 159 183.50 196.50Q214 234 243 274Q272 314 295 354.50Q318 395 331.50 433Q345 471 345 505Q345 546 321.50 572.50Q298 599 247 599Q215 599 181.50 585.50Q148 572 125 551L73 643Q112 675 161.50 694.50Q211 714 278 714Q321 714 357 702Q393 690 419 667Q445 644 460 609.50Q475 575 475 529Z"  horiz-adv-x="567" vert-adv-y="1000"  />

      
      <glyph glyph-name="uni33" unicode="&#x33;" d="M241 96Q303 96 335.50 129Q368 162 368 209Q368 266 334 293Q300 320 227 320L155 320L155 389L276 554L333 599L254 590L86 590L86 700L468 700L468 629L327 440L283 413L283 408L325 414Q360 411 391.50 398Q423 385 446.50 360.50Q470 336 484 300Q498 264 498 217Q498 158 478.50 115Q459 72 424.50 43Q390 14 344 0Q298-14 245-14Q201-14 154-6Q107 2 78 17L113 125Q139 112 170.50 104Q202 96 241 96Z"  horiz-adv-x="567" vert-adv-y="1000"  />

      
      <glyph glyph-name="uni34" unicode="&#x34;" d="M553 195L443 195L443 0L322 0L322 195L19 195L19 269L336 705L443 705L443 299L553 299L553 195M322 452L331 536L327 536L293 464L189 329L139 291L203 299L322 299L322 452Z"  horiz-adv-x="567" vert-adv-y="1000"  />

      
      <glyph glyph-name="uni35" unicode="&#x35;" d="M220 101Q286 101 321 133Q356 165 356 221Q356 281 315 309Q274 337 198 337L119 334L119 700L463 700L463 578L231 578L231 443L272 447Q321 445 360.50 429Q400 413 428 384.50Q456 356 471 315.50Q486 275 486 225Q486 166 466 121Q446 76 410.50 46Q375 16 327 1Q279-14 222-14Q177-14 136.50-6.50Q96 1 68 14L103 122Q126 112 153.50 106.50Q181 101 220 101Z"  horiz-adv-x="567" vert-adv-y="1000"  />

      
      <glyph glyph-name="uni36" unicode="&#x36;" d="M520 217Q520 168 503.50 126Q487 84 457 53Q427 22 384.50 4Q342-14 291-14Q239-14 195.50 2.50Q152 19 120 52Q88 85 70 135Q52 185 52 251Q52 350 80.50 430Q109 510 157.50 569.50Q206 629 270.50 665.50Q335 702 407 714L436 611Q386 603 344 580Q302 557 269.50 525Q237 493 214.50 453.50Q192 414 183 372Q203 397 235 414.50Q267 432 315 432Q360 432 398 418Q436 404 463 376.50Q490 349 505 309Q520 269 520 217M394 210Q394 322 284 322Q244 322 216.50 304Q189 286 178 262Q176 251 176 243Q176 235 176 227Q176 203 183 179.50Q190 156 203.50 137.50Q217 119 238 107.50Q259 96 288 96Q335 96 364.50 128Q394 160 394 210Z"  horiz-adv-x="567" vert-adv-y="1000"  />

      
      <glyph glyph-name="uni37" unicode="&#x37;" d="M104 0L333 539L377 588L317 578L60 578L60 700L511 700L511 662L231 0L104 0Z"  horiz-adv-x="567" vert-adv-y="1000"  />

      
      <glyph glyph-name="uni38" unicode="&#x38;" d="M61 171Q61 206 70 233.50Q79 261 95.50 283.50Q112 306 134.50 324Q157 342 183 357Q134 388 106 428.50Q78 469 78 529Q78 568 92.50 602Q107 636 134.50 661Q162 686 201 700Q240 714 289 714Q334 714 371 702Q408 690 434.50 668Q461 646 475.50 614.50Q490 583 490 545Q490 486 463.50 445Q437 404 386 370Q446 335 476.50 293Q507 251 507 185Q507 140 490.50 103.50Q474 67 444 41Q414 15 372 0.50Q330-14 280-14Q230-14 189.50-0.50Q149 13 120.50 37Q92 61 76.50 95Q61 129 61 171M383 184Q383 207 372 226Q361 245 343.50 260.50Q326 276 304.50 289Q283 302 261 314Q214 287 196.50 255.50Q179 224 179 193Q179 153 206.50 124.50Q234 96 283 96Q328 96 355.50 118Q383 140 383 184M202 527Q202 503 211 485Q220 467 235.50 453.50Q251 440 270.50 428.50Q290 417 311 407Q371 458 371 519Q371 561 346.50 582.50Q322 604 287 604Q243 604 222.50 581Q202 558 202 527Z"  horiz-adv-x="567" vert-adv-y="1000"  />

      
      <glyph glyph-name="uni39" unicode="&#x39;" d="M45 481Q45 532 60.50 575Q76 618 105.50 648.50Q135 679 177.50 696.50Q220 714 275 714Q388 714 452.50 646.50Q517 579 517 450Q517 334 487.50 249.50Q458 165 408.50 108.50Q359 52 294 22Q229-8 157-14L129 88Q184 95 227 115Q270 135 301 164.50Q332 194 351.50 231.50Q371 269 379 312Q355 286 327.50 276Q300 266 254 266Q216 266 178.50 279Q141 292 111.50 318.50Q82 345 63.50 385.50Q45 426 45 481M171 488Q171 431 203 402Q235 373 283 373Q324 373 350 386Q376 399 390 418Q393 439 393 458Q393 486 386 513Q379 540 364.50 561Q350 582 327.50 594.50Q305 607 274 607Q225 607 198 575.50Q171 544 171 488Z"  horiz-adv-x="567" vert-adv-y="1000"  />

      
      <glyph glyph-name="uni3a" unicode="&#x3a;" d="M93 428Q93 463 115 483.50Q137 504 173 504Q211 504 233 483.50Q255 463 255 428Q255 393 233 372Q211 351 173 351Q137 351 115 372Q93 393 93 428M93 66Q93 101 115 121.50Q137 142 173 142Q211 142 233 121.50Q255 101 255 66Q255 31 233 10Q211-11 173-11Q137-11 115 10Q93 31 93 66Z"  horiz-adv-x="269" vert-adv-y="1000"  />

      
      <glyph glyph-name="uni3b" unicode="&#x3b;" d="M82 64Q82 98 104.50 118Q127 138 160 138Q202 138 226 110Q250 82 250 36Q250-9 236-41.50Q222-74 201.50-95.50Q181-117 157.50-129.50Q134-142 115-148L77-94Q104-83 124-58Q144-33 146-5Q123-8 102.50 9Q82 26 82 64M82 428Q82 463 104 483.50Q126 504 162 504Q200 504 222 483.50Q244 463 244 428Q244 393 222 372Q200 351 162 351Q126 351 104 372Q82 393 82 428Z"  horiz-adv-x="290" vert-adv-y="1000"  />

      
      <glyph glyph-name="uni3c" unicode="&#x3c;" d="M40 285L40 355L426 586L483 496L259 357L168 322L258 291L488 154L431 64L40 285Z"  horiz-adv-x="527" vert-adv-y="1000"  />

      
      <glyph glyph-name="uni3d" unicode="&#x3d;" d="M43 490L485 490L485 378L43 378L43 490M43 299L485 299L485 187L43 187L43 299Z"  horiz-adv-x="527" vert-adv-y="1000"  />

      
      <glyph glyph-name="uni3e" unicode="&#x3e;" d="M487 365L487 295L101 64L44 155L268 293L359 329L269 359L39 497L96 586L487 365Z"  horiz-adv-x="527" vert-adv-y="1000"  />

      
      <glyph glyph-name="uni3f" unicode="&#x3f;" d="M136 208Q131 260 141 296.50Q151 333 168.50 359.50Q186 386 208.50 405.50Q231 425 250.50 443Q270 461 283 480.50Q296 500 296 527Q296 562 276.50 583Q257 604 207 604Q191 604 173 600.50Q155 597 137 590.50Q119 584 102.50 575.50Q86 567 73 558L23 654Q61 680 110.50 697Q160 714 230 714Q324 714 377 668.50Q430 623 430 546Q430 495 416.50 461.50Q403 428 383 404.50Q363 381 339 363Q315 345 295 324.50Q275 304 261 277Q247 250 247 208L136 208M116 66Q116 101 138 121.50Q160 142 196 142Q234 142 256 121.50Q278 101 278 66Q278 31 256 10Q234-11 196-11Q160-11 138 10Q116 31 116 66Z"  horiz-adv-x="454" vert-adv-y="1000"  />

      
      <glyph glyph-name="uni40" unicode="&#x40;" d="M679 484L749 484L701 213Q693 166 700.50 145Q708 124 734 124Q760 124 785 136Q810 148 830 173Q850 198 862.50 236Q875 274 875 326Q875 401 850 454Q825 507 781.50 541.50Q738 576 679 592Q620 608 552 608Q474 608 407 580Q340 552 290.50 503Q241 454 213 386.50Q185 319 185 240Q185 162 208.50 100Q232 38 277-5.50Q322-49 388.50-72.50Q455-96 541-96Q570-96 607-89Q644-82 674-68L705-164Q664-184 621.50-192Q579-200 524-200Q427-200 344.50-172Q262-144 201.50-89Q141-34 107 47.50Q73 129 73 236Q73 345 112 433Q151 521 217 583Q283 645 370 678.50Q457 712 554 712Q646 712 725 685.50Q804 659 862 609.50Q920 560 953 488.50Q986 417 986 326Q986 262 963.50 206Q941 150 901.50 109Q862 68 809.50 44Q757 20 697 20Q672 20 650.50 25.50Q629 31 614.50 44Q600 57 593 78Q586 99 589 130L585 130Q570 109 552.50 89Q535 69 514 53.50Q493 38 468 29Q443 20 413 20Q389 20 367 30.50Q345 41 329 60Q313 79 303.50 106Q294 133 294 166Q294 228 314 286.50Q334 345 368.50 390Q403 435 448.50 462.50Q494 490 545 490Q580 490 604 479.50Q628 469 648 452L679 484M616 363Q603 374 589 380Q575 386 554 386Q524 386 498.50 369Q473 352 454.50 325Q436 298 426 264.50Q416 231 416 199Q416 166 429.50 145Q443 124 476 124Q490 124 506 132.50Q522 141 537 155Q552 169 566 187Q580 205 591 225L616 363Z"  horiz-adv-x="1059" vert-adv-y="1000"  />

      
      <glyph glyph-name="uni41" unicode="&#x41;" d="M405 155L190 155L137 0L0 0L252 705L353 705L605 0L461 0L405 155M225 265L375 265L323 421L302 531L297 531L276 420L225 265Z"  horiz-adv-x="605" vert-adv-y="1000"  />

      
      <glyph glyph-name="uni42" unicode="&#x42;" d="M531 537Q531 511 524.50 485Q518 459 503 437.50Q488 416 464 399.50Q440 383 406 375L406 369Q436 364 463 352Q490 340 510 319Q530 298 541.50 268Q553 238 553 197Q553 143 530 103.50Q507 64 468.50 39Q430 14 381 2Q332-10 280-10Q263-10 236.50-10Q210-10 179.50-8.50Q149-7 117.50-4Q86-1 60 5L60 695Q79 698 103.50 701Q128 704 156 706Q184 708 213.50 709Q243 710 272 710Q321 710 367.50 702.50Q414 695 450.50 676Q487 657 509 623Q531 589 531 537M281 103Q306 103 329.50 109Q353 115 371 127.50Q389 140 400 159Q411 178 411 204Q411 237 398 256Q385 275 364 285.50Q343 296 317 299Q291 302 265 302L192 302L192 109Q197 107 208 106Q219 105 231.50 104.50Q244 104 257.50 103.50Q271 103 281 103M236 406Q250 406 268.50 407Q287 408 299 410Q337 422 364.50 446Q392 470 392 509Q392 535 382 552Q372 569 355.50 579Q339 589 318 593Q297 597 274 597Q248 597 226 596Q204 595 192 593L192 406L236 406Z"  horiz-adv-x="591" vert-adv-y="1000"  />

      
      <glyph glyph-name="uni43" unicode="&#x43;" d="M534 29Q502 6 452.50-4Q403-14 351-14Q288-14 231.50 5.50Q175 25 132 68.50Q89 112 63.50 181.50Q38 251 38 350Q38 453 66.50 522.50Q95 592 140.50 634.50Q186 677 242 695.50Q298 714 354 714Q414 714 455.50 706Q497 698 524 687L497 571Q474 582 442.50 587Q411 592 366 592Q283 592 232.50 533Q182 474 182 350Q182 296 194 251.50Q206 207 230.50 175.50Q255 144 291.50 126.50Q328 109 376 109Q421 109 452 118Q483 127 506 141L534 29Z"  horiz-adv-x="559" vert-adv-y="1000"  />

      
      <glyph glyph-name="uni44" unicode="&#x44;" d="M60 700Q81 703 107.50 705Q134 707 162 708Q190 709 216.50 709.50Q243 710 264 710Q357 710 423 684Q489 658 530 611Q571 564 590 499Q609 434 609 356Q609 285 591 219Q573 153 531 102Q489 51 420.50 20Q352-11 251-11Q235-11 208.50-10Q182-9 153.50-7.50Q125-6 99-4.50Q73-3 60-1L60 700M275 588Q253 588 230.50 587Q208 586 197 584L197 115Q201 114 210.50 113.50Q220 113 231 112.50Q242 112 252 111.50Q262 111 267 111Q325 111 363.50 131.50Q402 152 424.50 186Q447 220 456 264.50Q465 309 465 356Q465 397 457 438.50Q449 480 427.50 513Q406 546 369 567Q332 588 275 588Z"  horiz-adv-x="647" vert-adv-y="1000"  />

      
      <glyph glyph-name="uni45" unicode="&#x45;" d="M60 700L475 700L475 578L197 578L197 415L450 415L450 293L197 293L197 122L480 122L480 0L60 0L60 700Z"  horiz-adv-x="522" vert-adv-y="1000"  />

      
      <glyph glyph-name="uni46" unicode="&#x46;" d="M60 700L475 700L475 578L197 578L197 405L453 405L453 283L197 283L197 0L60 0L60 700Z"  horiz-adv-x="508" vert-adv-y="1000"  />

      
      <glyph glyph-name="uni47" unicode="&#x47;" d="M307 365L568 365L568 53Q526 18 467.50 2Q409-14 352-14Q285-14 227.50 7Q170 28 128 72.50Q86 117 62 186Q38 255 38 350Q38 449 66.50 518.50Q95 588 141.50 631.50Q188 675 246 694.50Q304 714 364 714Q424 714 469.50 705Q515 696 542 686L514 571Q489 581 458 586.50Q427 592 379 592Q336 592 300 579Q264 566 237.50 536.50Q211 507 196.50 461Q182 415 182 349Q182 286 196 240.50Q210 195 235 165.50Q260 136 293.50 122Q327 108 365 108Q391 108 416 114.50Q441 121 458 134L458 266L307 282L307 365Z"  horiz-adv-x="609" vert-adv-y="1000"  />

      
      <glyph glyph-name="uni48" unicode="&#x48;" d="M453 293L197 293L197 0L60 0L60 700L197 700L197 415L453 415L453 700L590 700L590 0L453 0L453 293Z"  horiz-adv-x="651" vert-adv-y="1000"  />

      
      <glyph glyph-name="uni49" unicode="&#x49;" d="M74 700L211 700L211 0L74 0L74 700Z"  horiz-adv-x="285" vert-adv-y="1000"  />

      
      <glyph glyph-name="uni4a" unicode="&#x4a;" d="M131 700L268 700L268 188Q268 148 259 112Q250 76 229.50 48.50Q209 21 177 4.50Q145-12 99-12Q70-12 36-6Q2 0-23 11L7 123Q33 110 66 110Q108 110 119.50 141Q131 172 131 223L131 700Z"  horiz-adv-x="334" vert-adv-y="1000"  />

      
      <glyph glyph-name="uni4b" unicode="&#x4b;" d="M233 299L197 299L197 0L60 0L60 700L197 700L197 390L229 404L422 700L578 700L374 406L320 368L376 329L609 0L440 0L233 299Z"  horiz-adv-x="620" vert-adv-y="1000"  />

      
      <glyph glyph-name="uni4c" unicode="&#x4c;" d="M503 0L60 0L60 700L197 700L197 122L503 122L503 0Z"  horiz-adv-x="514" vert-adv-y="1000"  />

      
      <glyph glyph-name="uni4d" unicode="&#x4d;" d="M603 363L618 502L612 502L569 390L420 129L376 129L219 391L175 502L170 502L190 364L190 0L60 0L60 700L185 700L372 380L405 300L409 300L439 382L616 700L740 700L740 0L603 0L603 363Z"  horiz-adv-x="800" vert-adv-y="1000"  />

      
      <glyph glyph-name="uni4e" unicode="&#x4e;" d="M234 365L179 475L174 475L190 365L190 0L60 0L60 705L160 705L425 332L478 225L483 225L467 332L467 700L597 700L597-5L497-5L234 365Z"  horiz-adv-x="657" vert-adv-y="1000"  />

      
      <glyph glyph-name="uni4f" unicode="&#x4f;" d="M38 350Q38 525 115 619.50Q192 714 335 714Q410 714 466 688Q522 662 559 614Q596 566 614 499Q632 432 632 350Q632 175 554.50 80.50Q477-14 335-14Q259-14 203 12Q147 38 110.50 86Q74 134 56 201Q38 268 38 350M182 350Q182 297 191 252.50Q200 208 218.50 176Q237 144 266 126Q295 108 335 108Q408 108 448 165Q488 222 488 350Q488 401 479.50 445Q471 489 453 522Q435 555 406 573.50Q377 592 335 592Q262 592 222 533.50Q182 475 182 350Z"  horiz-adv-x="670" vert-adv-y="1000"  />

      
      <glyph glyph-name="uni50" unicode="&#x50;" d="M60 693Q102 701 152.50 705.50Q203 710 253 710Q305 710 357.50 701.50Q410 693 452 667.50Q494 642 520.50 596.50Q547 551 547 478Q547 412 524 366.50Q501 321 463 292Q425 263 376.50 250Q328 237 276 237Q271 237 260 237Q249 237 237 237.50Q225 238 213.50 239Q202 240 197 241L197 0L60 0L60 693M264 592Q244 592 226 590.50Q208 589 197 587L197 360Q201 359 209 358Q217 357 226 356.50Q235 356 243.50 356Q252 356 256 356Q283 356 309.50 361Q336 366 357 379.50Q378 393 390.50 417Q403 441 403 480Q403 513 391 534.50Q379 556 359.50 569Q340 582 315 587Q290 592 264 592Z"  horiz-adv-x="572" vert-adv-y="1000"  />

      
      <glyph glyph-name="uni51" unicode="&#x51;" d="M702-202Q654-215 605-215Q554-215 506-204.50Q458-194 413-182Q368-170 326-159.50Q284-149 247-149Q223-149 201-155L201-37Q229-31 259-31Q301-31 342.50-41Q384-51 427-62.50Q470-74 515-84Q560-94 610-94Q632-94 655-91.50Q678-89 702-83L702-202M38 350Q38 525 115 619.50Q192 714 335 714Q410 714 466 688Q522 662 559 614Q596 566 614 499Q632 432 632 350Q632 175 554.50 80.50Q477-14 335-14Q259-14 203 12Q147 38 110.50 86Q74 134 56 201Q38 268 38 350M182 350Q182 297 191 252.50Q200 208 218.50 176Q237 144 266 126Q295 108 335 108Q408 108 448 165Q488 222 488 350Q488 401 479.50 445Q471 489 453 522Q435 555 406 573.50Q377 592 335 592Q262 592 222 533.50Q182 475 182 350Z"  horiz-adv-x="670" vert-adv-y="1000"  />

      
      <glyph glyph-name="uni52" unicode="&#x52;" d="M60 693Q83 697 109.50 700.50Q136 704 162.50 706Q189 708 214 709Q239 710 260 710Q309 710 356.50 701Q404 692 441.50 670Q479 648 501.50 609.50Q524 571 524 513Q524 427 484 373Q444 319 377 298L426 267L586 0L428 0L269 274L197 287L197 0L60 0L60 693M270 588Q249 588 228.50 587Q208 586 197 583L197 380L255 380Q312 380 346 406Q380 432 380 492Q380 537 352 562.50Q324 588 270 588Z"  horiz-adv-x="602" vert-adv-y="1000"  />

      
      <glyph glyph-name="uni53" unicode="&#x53;" d="M362 188Q362 220 338.50 240Q315 260 279.50 276.50Q244 293 202.50 310.50Q161 328 125.50 353.50Q90 379 66.50 417Q43 455 43 514Q43 565 60 602.50Q77 640 108.50 665Q140 690 183 702Q226 714 279 714Q340 714 394 703.50Q448 693 483 673L440 558Q418 572 374 583.50Q330 595 279 595Q231 595 205.50 576Q180 557 180 525Q180 495 203.50 475Q227 455 262.50 438Q298 421 339.50 403Q381 385 416.50 359.50Q452 334 475.50 296.50Q499 259 499 203Q499 147 480.50 106.50Q462 66 428.50 39Q395 12 347.50-1Q300-14 243-14Q168-14 111 0Q54 14 27 28L71 145Q82 139 99.50 132Q117 125 139 119Q161 113 185.50 109Q210 105 236 105Q297 105 329.50 125.50Q362 146 362 188Z"  horiz-adv-x="530" vert-adv-y="1000"  />

      
      <glyph glyph-name="uni54" unicode="&#x54;" d="M557 578L353 578L353 0L216 0L216 578L11 578L11 700L557 700L557 578Z"  horiz-adv-x="568" vert-adv-y="1000"  />

      
      <glyph glyph-name="uni55" unicode="&#x55;" d="M440 700L570 700L570 248Q570 180 552 131Q534 82 502 50Q470 18 424 3Q378-12 323-12Q57-12 57 231L57 700L194 700L194 258Q194 217 201.50 188.50Q209 160 225 142.50Q241 125 265 117.50Q289 110 321 110Q384 110 412 145Q440 180 440 258L440 700Z"  horiz-adv-x="627" vert-adv-y="1000"  />

      
      <glyph glyph-name="uni56" unicode="&#x56;" d="M290 289L308 170L313 170L333 290L467 700L611 700L351-5L253-5L-9 700L150 700L290 289Z"  horiz-adv-x="602" vert-adv-y="1000"  />

      
      <glyph glyph-name="uni57" unicode="&#x57;" d="M242 309L255 185L259 185L273 311L395 700L485 700L605 309L619 185L623 185L638 311L723 700L862 700L669-5L577-5L452 384L435 491L430 491L413 383L289-5L192-5L0 700L149 700L242 309Z"  horiz-adv-x="862" vert-adv-y="1000"  />

      
      <glyph glyph-name="uni58" unicode="&#x58;" d="M225 356L30 700L195 700L303 498L327 427L350 498L463 700L612 700L410 363L622 0L459 0L336 216L309 290L283 216L159 0L10 0L225 356Z"  horiz-adv-x="633" vert-adv-y="1000"  />

      
      <glyph glyph-name="uni59" unicode="&#x59;" d="M228 260L-2 700L161 700L289 437L303 363L308 363L323 439L447 700L594 700L365 261L365 0L228 0L228 260Z"  horiz-adv-x="592" vert-adv-y="1000"  />

      
      <glyph glyph-name="uni5a" unicode="&#x5a;" d="M27 122L323 536L375 578L27 578L27 700L512 700L512 578L214 160L163 122L512 122L512 0L27 0L27 122Z"  horiz-adv-x="539" vert-adv-y="1000"  />

      
      <glyph glyph-name="uni5b" unicode="&#x5b;" d="M60 700L295 700L295 590L184 590L184-120L295-120L295-230L60-230L60 700Z"  horiz-adv-x="324" vert-adv-y="1000"  />

      
      <glyph glyph-name="uni5c" unicode="&#x5c;" d="M438-95L339-140L-24 668L78 711L438-95Z"  horiz-adv-x="424" vert-adv-y="1000"  />

      
      <glyph glyph-name="uni5d" unicode="&#x5d;" d="M264-230L29-230L29-120L140-120L140 590L29 590L29 700L264 700L264-230Z"  horiz-adv-x="324" vert-adv-y="1000"  />

      
      <glyph glyph-name="uni5e" unicode="&#x5e;" d="M216 705L285 705L470 413L339 413L268 535L247 605L222 534L144 413L20 413L216 705Z"  horiz-adv-x="500" vert-adv-y="1000"  />

      
      <glyph glyph-name="uni5f" unicode="&#x5f;" d="M0-117L444-117L444-224L0-224L0-117Z"  horiz-adv-x="444" vert-adv-y="1000"  />

      
      <glyph glyph-name="uni60" unicode="&#x60;" d="M256 566L184 566L60 690L60 720L196 720L256 566Z"  horiz-adv-x="316" vert-adv-y="1000"  />

      
      <glyph glyph-name="uni61" unicode="&#x61;" d="M54 471Q94 489 149 499.50Q204 510 264 510Q316 510 351 497.50Q386 485 406.50 462Q427 439 435.50 407Q444 375 444 335Q444 291 441 246.50Q438 202 437.50 159Q437 116 440 75.50Q443 35 455-1L349-1L328 68L323 68Q303 37 267.50 14.50Q232-8 176-8Q141-8 113 2.50Q85 13 65 32.50Q45 52 34 78.50Q23 105 23 138Q23 184 43.50 215.50Q64 247 102.50 266.50Q141 286 194.50 293.50Q248 301 314 298Q321 354 306 378.50Q291 403 239 403Q200 403 156.50 395Q113 387 85 374L54 471M219 99Q258 99 281 116.50Q304 134 315 154L315 219Q284 222 255.50 220Q227 218 205 211Q183 204 170 191Q157 178 157 158Q157 130 173.50 114.50Q190 99 219 99Z"  horiz-adv-x="496" vert-adv-y="1000"  />

      
      <glyph glyph-name="uni62" unicode="&#x62;" d="M57 700L187 700L187 460L191 460Q212 484 245 498Q278 512 318 512Q408 512 455.50 450.50Q503 389 503 263Q503 128 436.50 58Q370-12 254-12Q190-12 137-1.50Q84 9 57 22L57 700M280 402Q244 402 221.50 383.50Q199 365 187 330L187 112Q203 104 221.50 101Q240 98 261 98Q314 98 341.50 136.50Q369 175 369 259Q369 402 280 402Z"  horiz-adv-x="536" vert-adv-y="1000"  />

      
      <glyph glyph-name="uni63" unicode="&#x63;" d="M411 31Q381 9 338.50-2.50Q296-14 251-14Q191-14 149.50 5Q108 24 82 58.50Q56 93 44.50 142Q33 191 33 250Q33 377 90 445.50Q147 514 256 514Q311 514 344.50 505Q378 496 405 482L374 376Q351 387 328.50 393Q306 399 277 399Q223 399 195 363.50Q167 328 167 250Q167 218 174 191Q181 164 195 144Q209 124 231.50 112.50Q254 101 284 101Q317 101 340 109.50Q363 118 381 130L411 31Z"  horiz-adv-x="433" vert-adv-y="1000"  />

      
      <glyph glyph-name="uni64" unicode="&#x64;" d="M482 176Q482 134 483 92Q484 50 492-1L399-1L381 64L377 64Q357 29 319.50 7.50Q282-14 231-14Q137-14 85 48Q33 110 33 242Q33 370 91 441Q149 512 261 512Q292 512 312 508.50Q332 505 352 497L352 700L482 700L482 176M261 96Q299 96 321 114.50Q343 133 352 168L352 380Q338 391 321 396.50Q304 402 277 402Q222 402 194.50 365Q167 328 167 238Q167 174 189.50 135Q212 96 261 96Z"  horiz-adv-x="539" vert-adv-y="1000"  />

      
      <glyph glyph-name="uni65" unicode="&#x65;" d="M457 43Q427 19 375.50 2.50Q324-14 266-14Q145-14 89 56.50Q33 127 33 250Q33 382 96 448Q159 514 273 514Q311 514 347 504Q383 494 411 471Q439 448 456 409Q473 370 473 312Q473 291 470.50 267Q468 243 463 217L163 217Q166 154 195.50 122Q225 90 291 90Q332 90 364.50 102.50Q397 115 414 128L457 43M271 410Q220 410 195.50 379.50Q171 349 166 298L352 298Q356 352 335.50 381Q315 410 271 410Z"  horiz-adv-x="508" vert-adv-y="1000"  />

      
      <glyph glyph-name="uni66" unicode="&#x66;" d="M11 500L80 500L80 528Q80 623 120 665.50Q160 708 236 708Q316 708 369 689L344 585Q321 593 303.50 595.50Q286 598 267 598Q247 598 235.50 592Q224 586 218.50 573.50Q213 561 211.50 542.50Q210 524 210 500L320 500L320 390L210 390L210 0L80 0L80 390L11 390L11 500Z"  horiz-adv-x="321" vert-adv-y="1000"  />

      
      <glyph glyph-name="uni67" unicode="&#x67;" d="M480 0Q480-109 421-160.50Q362-212 256-212Q184-212 142.50-202Q101-192 80-181L107-78Q130-87 160.50-96Q191-105 236-105Q304-105 328.50-75.50Q353-46 353 7L353 39L349 39Q314-8 225-8Q128-8 80.50 52Q33 112 33 240Q33 374 97 443Q161 512 283 512Q347 512 397.50 503Q448 494 480 482L480 0M260 96Q298 96 318.50 113Q339 130 350 164L350 389Q319 402 273 402Q223 402 195 364.50Q167 327 167 245Q167 172 191 134Q215 96 260 96Z"  horiz-adv-x="536" vert-adv-y="1000"  />

      
      <glyph glyph-name="uni68" unicode="&#x68;" d="M363 0L363 284Q363 345 346 372Q329 399 284 399Q251 399 223.50 376.50Q196 354 187 319L187 0L57 0L57 700L187 700L187 444L191 444Q215 476 250 495Q285 514 339 514Q377 514 406 504Q435 494 454.50 471Q474 448 483.50 408.50Q493 369 493 311L493 0L363 0Z"  horiz-adv-x="545" vert-adv-y="1000"  />

      
      <glyph glyph-name="uni69" unicode="&#x69;" d="M68 500L198 500L198 0L68 0L68 500M49 641Q49 670 70.50 690.50Q92 711 130 711Q168 711 191.50 690.50Q215 670 215 641Q215 612 191.50 592.50Q168 573 130 573Q92 573 70.50 592.50Q49 612 49 641Z"  horiz-adv-x="269" vert-adv-y="1000"  />

      
      <glyph glyph-name="uni6a" unicode="&#x6a;" d="M69 500L199 500L199-21Q199-112 163-160Q127-208 48-208Q18-208-16-201L-16-92Q-12-92-9-92.50Q-6-93-3-93Q42-93 55.50-64Q69-35 69 16L69 500M51 641Q51 670 72.50 690.50Q94 711 132 711Q170 711 193.50 690.50Q217 670 217 641Q217 612 193.50 592.50Q170 573 132 573Q94 573 72.50 592.50Q51 612 51 641Z"  horiz-adv-x="268" vert-adv-y="1000"  />

      
      <glyph glyph-name="uni6b" unicode="&#x6b;" d="M222 207L187 207L187 0L57 0L57 700L187 700L187 287L217 301L331 500L474 500L354 310L303 272L358 233L493 0L344 0L222 207Z"  horiz-adv-x="491" vert-adv-y="1000"  />

      
      <glyph glyph-name="uni6c" unicode="&#x6c;" d="M191 168Q191 133 200 117Q209 101 229 101Q241 101 252.50 103Q264 105 281 112L295 10Q279 2 246-6Q213-14 178-14Q121-14 91 12.50Q61 39 61 100L61 700L191 700L191 168Z"  horiz-adv-x="294" vert-adv-y="1000"  />

      
      <glyph glyph-name="uni6d" unicode="&#x6d;" d="M341 0L341 272Q341 341 328 370Q315 399 274 399Q240 399 219 380.50Q198 362 187 333L187 0L57 0L57 500L158 500L173 434L177 434Q200 466 235.50 490Q271 514 327 514Q375 514 405.50 494.50Q436 475 453 429Q476 468 512 491Q548 514 599 514Q641 514 670.50 504Q700 494 718.50 469.50Q737 445 746 404Q755 363 755 300L755 0L625 0L625 281Q625 340 612.50 369.50Q600 399 557 399Q522 399 501.50 380Q481 361 471 328L471 0L341 0Z"  horiz-adv-x="805" vert-adv-y="1000"  />

      
      <glyph glyph-name="uni6e" unicode="&#x6e;" d="M363 0L363 284Q363 345 345.50 372Q328 399 286 399Q249 399 223.50 377.50Q198 356 187 324L187 0L57 0L57 500L160 500L175 434L179 434Q202 466 240 490Q278 514 338 514Q375 514 404 504Q433 494 453 471Q473 448 483 408.50Q493 369 493 311L493 0L363 0Z"  horiz-adv-x="545" vert-adv-y="1000"  />

      
      <glyph glyph-name="uni6f" unicode="&#x6f;" d="M33 250Q33 377 95 445.50Q157 514 269 514Q329 514 373 495Q417 476 446 441.50Q475 407 489.50 358Q504 309 504 250Q504 123 442.50 54.50Q381-14 269-14Q209-14 165 5Q121 24 91.50 58.50Q62 93 47.50 142Q33 191 33 250M167 250Q167 217 173 189Q179 161 191 140Q203 119 222.50 107.50Q242 96 269 96Q320 96 345 133Q370 170 370 250Q370 319 347 361.50Q324 404 269 404Q221 404 194 368Q167 332 167 250Z"  horiz-adv-x="537" vert-adv-y="1000"  />

      
      <glyph glyph-name="uni70" unicode="&#x70;" d="M57 500L152 500L167 440L171 440Q197 478 232.50 496Q268 514 319 514Q413 514 460 454.50Q507 395 507 263Q507 199 492 147.50Q477 96 447.50 60Q418 24 375.50 5Q333-14 278-14Q247-14 227-9.50Q207-5 187 5L187-200L57-200L57 500M280 404Q242 404 220.50 385Q199 366 187 328L187 120Q201 109 217.50 102.50Q234 96 261 96Q317 96 345 135.50Q373 175 373 266Q373 332 351 368Q329 404 280 404Z"  horiz-adv-x="540" vert-adv-y="1000"  />

      
      <glyph glyph-name="uni71" unicode="&#x71;" d="M480-200L350-200L350 43L346 43Q329 17 300 1.50Q271-14 225-14Q132-14 82.50 49Q33 112 33 240Q33 374 100.50 443Q168 512 294 512Q321 512 348 509.50Q375 507 399.50 502.50Q424 498 445 492.50Q466 487 480 482L480-200M260 96Q298 96 318.50 113Q339 130 350 164L350 389Q335 397 316 399.50Q297 402 273 402Q220 402 193.50 362Q167 322 167 245Q167 172 191 134Q215 96 260 96Z"  horiz-adv-x="536" vert-adv-y="1000"  />

      
      <glyph glyph-name="uni72" unicode="&#x72;" d="M333 378Q302 389 277 389Q242 389 218.50 370.50Q195 352 187 323L187 0L57 0L57 500L158 500L173 434L177 434Q194 471 223 491Q252 511 291 511Q317 511 350 500L333 378Z"  horiz-adv-x="351" vert-adv-y="1000"  />

      
      <glyph glyph-name="uni73" unicode="&#x73;" d="M264 138Q264 158 247 170Q230 182 205 192Q180 202 150 212.50Q120 223 95 241.50Q70 260 53 288.50Q36 317 36 362Q36 436 80 475Q124 514 207 514Q264 514 310 502Q356 490 382 475L353 381Q330 390 295 400Q260 410 224 410Q166 410 166 365Q166 347 183 336Q200 325 225 315.50Q250 306 280 295Q310 284 335 266.50Q360 249 377 221Q394 193 394 149Q394 73 345.50 29.50Q297-14 200-14Q147-14 100.50-0.50Q54 13 25 31L61 128Q84 115 122 102.50Q160 90 200 90Q229 90 246.50 101Q264 112 264 138Z"  horiz-adv-x="422" vert-adv-y="1000"  />

      
      <glyph glyph-name="uni74" unicode="&#x74;" d="M5 500L74 500L74 594L204 631L204 500L326 500L326 390L204 390L204 198Q204 146 214.50 123.50Q225 101 254 101Q274 101 288.50 105Q303 109 321 117L344 17Q317 4 281-5Q245-14 208-14Q139-14 106.50 21.50Q74 57 74 138L74 390L5 390L5 500Z"  horiz-adv-x="349" vert-adv-y="1000"  />

      
      <glyph glyph-name="uni75" unicode="&#x75;" d="M182 500L182 216Q182 155 196.50 128Q211 101 253 101Q290 101 314.50 123Q339 145 351 177L351 500L481 500L481 152Q481 111 485 71.50Q489 32 497 0L399 0L376 74L372 74Q349 36 308 11Q267-14 211-14Q173-14 143-4Q113 6 93 29Q73 52 62.50 91Q52 130 52 189L52 500L182 500Z"  horiz-adv-x="538" vert-adv-y="1000"  />

      
      <glyph glyph-name="uni76" unicode="&#x76;" d="M230 238L247 161L252 161L266 240L351 500L491 500L282-5L203-5L-14 500L137 500L230 238Z"  horiz-adv-x="477" vert-adv-y="1000"  />

      
      <glyph glyph-name="uni77" unicode="&#x77;" d="M419 500L510 244L528 161L532 161L546 245L610 500L729 500L575-5L479-5L378 275L365 338L360 338L348 274L252-5L153-5L-8 500L133 500L206 249L218 160L223 160L240 250L323 500L419 500Z"  horiz-adv-x="721" vert-adv-y="1000"  />

      
      <glyph glyph-name="uni78" unicode="&#x78;" d="M170 256L20 500L175 500L240 393L268 323L298 393L366 500L507 500L356 260L517 0L366 0L289 120L259 194L227 120L150 0L8 0L170 256Z"  horiz-adv-x="525" vert-adv-y="1000"  />

      
      <glyph glyph-name="uni79" unicode="&#x79;" d="M239 219L257 141L263 141L276 220L352 500L486 500L334 49Q315-7 297.50-53.50Q280-100 259-134Q238-168 212.50-186.50Q187-205 152-205Q100-205 69-188L93-84Q108-90 123-90Q146-90 167.50-70.50Q189-51 200 0L-9 500L147 500L239 219Z"  horiz-adv-x="478" vert-adv-y="1000"  />

      
      <glyph glyph-name="uni7a" unicode="&#x7a;" d="M31 110L228 347L279 390L31 390L31 500L423 500L423 390L228 149L178 110L423 110L423 0L31 0L31 110Z"  horiz-adv-x="458" vert-adv-y="1000"  />

      
      <glyph glyph-name="uni7b" unicode="&#x7b;" d="M123 96Q123 147 102 166Q81 185 43 185L43 285Q81 285 102 305.50Q123 326 123 370L123 579Q123 633 148.50 667Q174 701 230 701L350 701L350 591L300 591Q273 591 260.50 577Q248 563 248 531L248 336Q248 292 227 269.50Q206 247 178 242L178 232Q205 228 226.50 202Q248 176 248 134L248-60Q248-92 260-106Q272-120 301-120L350-120L350-230L230-230Q178-230 150.50-198.50Q123-167 123-109L123 96Z"  horiz-adv-x="371" vert-adv-y="1000"  />

      
      <glyph glyph-name="uni7c" unicode="&#x7c;" d="M60 700L167 700L167-130L60-130L60 700Z"  horiz-adv-x="227" vert-adv-y="1000"  />

      
      <glyph glyph-name="uni7d" unicode="&#x7d;" d="M261 375Q261 324 282 305Q303 286 341 286L341 186Q303 186 282 165.50Q261 145 261 101L261-108Q261-162 234.50-196Q208-230 152-230L35-230L35-120L85-120Q112-120 124.50-106.50Q137-93 137-60L137 135Q137 179 158 201.50Q179 224 207 229L207 239Q180 243 158.50 269Q137 295 137 337L137 531Q137 562 125 576.50Q113 591 84 591L35 591L35 701L154 701Q207 701 234 669.50Q261 638 261 580L261 375Z"  horiz-adv-x="371" vert-adv-y="1000"  />

      
      <glyph glyph-name="uni7e" unicode="&#x7e;" d="M28 378Q75 416 112.50 430.50Q150 445 182 445Q211 445 236 436.50Q261 428 284 418.50Q307 409 329.50 400.50Q352 392 375 392Q393 392 412 398Q431 404 452 421L499 318Q463 291 433 280Q403 269 377 269Q349 269 325 278Q301 287 278.50 298Q256 309 233 318Q210 327 184 327Q160 327 132.50 316.50Q105 306 72 278L28 378Z"  horiz-adv-x="527" vert-adv-y="1000"  />

      
      <glyph glyph-name="unia1" unicode="&#xa1;" d="M191-200L57-200L57 129L83 291L165 291L191 129L191-200M44 435Q44 470 66 490.50Q88 511 124 511Q162 511 184 490.50Q206 470 206 435Q206 400 184 379Q162 358 124 358Q88 358 66 379Q44 400 44 435Z"  horiz-adv-x="293" vert-adv-y="1000"  />

      
      <glyph glyph-name="unia2" unicode="&#xa2;" d="M489 31Q472 18 446.50 8.50Q421-1 392-6L392-100L271-100L271-11Q220-4 184.50 17.50Q149 39 126.50 72.50Q104 106 94 151Q84 196 84 250Q84 362 132 428.50Q180 495 271 510L271 600L392 600L392 510Q420 506 442 499.50Q464 493 482 484L452 378Q437 385 420 389Q403 393 385 395L385 104Q408 107 426.50 114Q445 121 459 129L489 31M212 250Q212 199 231 160.50Q250 122 295 108L295 394Q253 383 232.50 348.50Q212 314 212 250Z"  horiz-adv-x="567" vert-adv-y="1000"  />

      
      <glyph glyph-name="unia3" unicode="&#xa3;" d="M51 394L119 394Q106 418 96.50 448Q87 478 87 520Q87 569 103.50 605.50Q120 642 149.50 666Q179 690 220 702Q261 714 310 714Q371 714 421 702.50Q471 691 507 674L465 558Q445 569 410 580.50Q375 592 326 592Q278 592 251 569.50Q224 547 224 502Q224 468 236.50 443.50Q249 419 264 394L405 394L405 287L307 287Q310 270 310 253Q310 223 300 190Q290 157 269 136L226 105L226 100L293 115L523 115L523 0L51 0L51 115L53 115Q84 116 107.50 126Q131 136 146.50 152.50Q162 169 170 191Q178 213 178 237Q178 264 172 287L51 287L51 394Z"  horiz-adv-x="567" vert-adv-y="1000"  />

      
      <glyph glyph-name="unia4" unicode="&#xa4;" d="M81 622L159 545L178 508Q198 523 225.50 530.50Q253 538 283 538Q312 538 340.50 530.50Q369 523 388 509L408 545L486 622L563 542L486 464L449 448Q463 427 469 400.50Q475 374 475 345Q475 315 468.50 288.50Q462 262 449 244L486 228L563 150L486 70L408 147L390 184Q371 170 341.50 162Q312 154 283 154Q253 154 225.50 161.50Q198 169 178 183L159 147L81 70L5 150L82 228L118 245Q106 266 99 290.50Q92 315 92 345Q92 374 99.50 399Q107 424 120 447L82 464L5 542L81 622M201 346Q201 308 224 284Q247 260 284 260Q321 260 343.50 284Q366 308 366 346Q366 382 343.50 407Q321 432 284 432Q247 432 224 407Q201 382 201 346Z"  horiz-adv-x="567" vert-adv-y="1000"  />

      
      <glyph glyph-name="unia5" unicode="&#xa5;" d="M85 337L175 337L-14 700L149 700L277 437L291 363L296 363L311 439L435 700L582 700L392 337L483 337L483 257L353 257L353 199L483 199L483 119L353 119L353 0L216 0L216 119L85 119L85 199L216 199L216 257L85 257L85 337Z"  horiz-adv-x="567" vert-adv-y="1000"  />

      
      <glyph glyph-name="unia6" unicode="&#xa6;" d="M60 213L167 213L167-130L60-130L60 213M167 357L60 357L60 700L167 700L167 357Z"  horiz-adv-x="227" vert-adv-y="1000"  />

      
      <glyph glyph-name="unia7" unicode="&#xa7;" d="M49 353Q49 384 64 413.50Q79 443 105 466L146 480Q120 496 103 520.50Q86 545 86 586Q86 642 129.50 678Q173 714 261 714Q320 714 371 704Q422 694 449 681L417 576Q394 587 356 595.50Q318 604 283 604Q246 604 231 593Q216 582 216 565Q216 547 235.50 537Q255 527 284.50 519Q314 511 348.50 501Q383 491 412.50 473Q442 455 461.50 425Q481 395 481 347Q481 316 466.50 287Q452 258 426 235L381 221Q408 205 426 180Q444 155 444 114Q444 51 395 18.50Q346-14 265-14Q197-14 151.50-0.50Q106 13 77 29L111 129Q134 118 167 107Q200 96 244 96Q281 96 297.50 105.50Q314 115 314 136Q314 155 294.50 165.50Q275 176 245.50 184.50Q216 193 181.50 203Q147 213 117.50 230.50Q88 248 68.50 277Q49 306 49 353M351 345Q351 363 342.50 375Q334 387 318 396.50Q302 406 279 414Q256 422 227 431Q207 419 193 399.50Q179 380 179 355Q179 320 211 303Q243 286 299 270Q321 282 336 302Q351 322 351 345Z"  horiz-adv-x="530" vert-adv-y="1000"  />

      
      <glyph glyph-name="unia8" unicode="&#xa8;" d="M60 651Q60 683 79.50 702Q99 721 131 721Q163 721 181.50 702Q200 683 200 651Q200 621 181.50 602Q163 583 131 583Q99 583 79.50 602Q60 621 60 651M279 651Q279 683 297.50 702Q316 721 348 721Q380 721 399.50 702Q419 683 419 651Q419 621 399.50 602Q380 583 348 583Q316 583 297.50 602Q279 621 279 651Z"  horiz-adv-x="479" vert-adv-y="1000"  />

      
      <glyph glyph-name="unia9" unicode="&#xa9;" d="M55 290Q55 373 83 439.50Q111 506 159.50 553Q208 600 274 625.50Q340 651 416 651Q492 651 557.50 625.50Q623 600 672 553Q721 506 749 439.50Q777 373 777 290Q777 207 749 140.50Q721 74 672 27Q623-20 557.50-45.50Q492-71 416-71Q333-71 266-45.50Q199-20 152 27Q105 74 80 140.50Q55 207 55 290M153 290Q153 228 172.50 178Q192 128 227.50 93.50Q263 59 311 40.50Q359 22 416 22Q473 22 521.50 40.50Q570 59 605.50 93.50Q641 128 660.50 178Q680 228 680 290Q680 352 660.50 402Q641 452 605.50 486.50Q570 521 521.50 539.50Q473 558 416 558Q359 558 311 539.50Q263 521 227.50 486.50Q192 452 172.50 402Q153 352 153 290M541 131Q519 117 485.50 108.50Q452 100 414 100Q333 100 290.50 151Q248 202 248 290Q248 381 293.50 430.50Q339 480 414 480Q451 480 479.50 471.50Q508 463 534 448L502 361Q484 370 469.50 373Q455 376 441 376Q412 376 395 357Q378 338 378 290Q378 204 448 204Q467 204 482 207.50Q497 211 512 219L541 131Z"  horiz-adv-x="833" vert-adv-y="1000"  />

      
      <glyph glyph-name="uniaa" unicode="&#xaa;" d="M61 674Q87 688 134.50 698Q182 708 241 708Q317 708 345 680.50Q373 653 373 596Q373 536 370 480Q367 424 378 380L277 380L264 426L260 426Q247 409 223 392.50Q199 376 156 376Q104 376 73 403.50Q42 431 42 475Q42 508 59.50 530Q77 552 106.50 565Q136 578 175.50 582.50Q215 587 259 585Q261 611 252 622.50Q243 634 208 634Q168 634 135.50 626Q103 618 83 610L61 674M194 454Q226 454 239 465.50Q252 477 259 489L259 524Q216 529 186.50 522Q157 515 157 488Q157 472 167.50 463Q178 454 194 454Z"  horiz-adv-x="420" vert-adv-y="1000"  />

      
      <glyph glyph-name="uniab" unicode="&#xab;" d="M223 261L377 477L448 421L367 299L321 260L367 225L454 104L383 48L223 261M29 259L189 489L268 427L181 301L133 260L181 224L274 100L195 38L29 259Z"  horiz-adv-x="488" vert-adv-y="1000"  />

      
      <glyph glyph-name="uniac" unicode="&#xac;" d="M45 412L487 412L487 186L367 186L367 300L45 300L45 412Z"  horiz-adv-x="527" vert-adv-y="1000"  />

      
      <glyph glyph-name="uniad" unicode="&#xad;" d="M54 345L305 345L305 230L54 230L54 345Z"  horiz-adv-x="360" vert-adv-y="1000"  />

      
      <glyph glyph-name="uniae" unicode="&#xae;" d="M62 451Q62 518 84.50 570.50Q107 623 146 659Q185 695 236.50 714Q288 733 345 733Q404 733 455.50 714Q507 695 545 659Q583 623 605 570.50Q627 518 627 451Q627 383 604.50 330.50Q582 278 543.50 242Q505 206 453.50 187.50Q402 169 345 169Q286 169 234.50 187.50Q183 206 144.50 242Q106 278 84 330.50Q62 383 62 451M156 451Q156 403 171.50 366.50Q187 330 213 306Q239 282 273 270Q307 258 345 258Q385 258 419.50 269.50Q454 281 479 305Q504 329 518.50 365.50Q533 402 533 451Q533 499 518 535Q503 571 477.50 595Q452 619 417.50 631Q383 643 345 643Q303 643 268 630Q233 617 208 592Q183 567 169.50 531.50Q156 496 156 451M242 581Q258 586 287 588.50Q316 591 342 591Q384 591 414 573.50Q444 556 444 513Q444 481 423.50 464Q403 447 373 445L401 431L466 322L405 322L342 426L294 441L294 322L242 322L242 581M331 546Q320 546 310 545.50Q300 545 294 542L294 471L328 471Q357 471 373 480Q389 489 389 511Q389 546 331 546Z"  horiz-adv-x="690" vert-adv-y="1000"  />

      
      <glyph glyph-name="uniaf" unicode="&#xaf;" d="M60 658L383 658L383 566L60 566L60 658Z"  horiz-adv-x="443" vert-adv-y="1000"  />

      
      <glyph glyph-name="unib0" unicode="&#xb0;" d="M60 548Q60 585 73 615.50Q86 646 108.50 668Q131 690 160.50 702Q190 714 224 714Q258 714 288.50 703Q319 692 342 670.50Q365 649 378 618Q391 587 391 548Q391 509 378 478.50Q365 448 342 427Q319 406 288.50 395Q258 384 224 384Q190 384 160.50 395Q131 406 108.50 427Q86 448 73 478.50Q60 509 60 548M160 548Q160 516 179 497.50Q198 479 225 479Q252 479 272 497.50Q292 516 292 548Q292 580 272 599.50Q252 619 225 619Q198 619 179 599.50Q160 580 160 548Z"  horiz-adv-x="437" vert-adv-y="1000"  />

      
      <glyph glyph-name="unib1" unicode="&#xb1;" d="M43 518L205 518L205 682L322 682L322 518L485 518L485 406L322 406L322 299L205 299L205 406L43 406L43 518M43 253L485 253L485 141L43 141L43 253Z"  horiz-adv-x="527" vert-adv-y="1000"  />

      
      <glyph glyph-name="unib2" unicode="&#xb2;" d="M348 680Q348 621 318 579Q288 537 246 499L199 474L199 470L258 481L364 481L364 380L51 380L51 451Q77 469 109 493Q141 517 168.50 544.50Q196 572 214.50 601Q233 630 233 656Q233 705 177 705Q150 705 126 696.50Q102 688 84 677L50 767Q85 788 124.50 797.50Q164 807 200 807Q271 807 309.50 774.50Q348 742 348 680Z"  horiz-adv-x="412" vert-adv-y="1000"  />

      
      <glyph glyph-name="unib3" unicode="&#xb3;" d="M169 468Q213 468 231.50 482Q250 496 251 519Q250 542 231 555Q212 568 161 568L119 568L119 606L192 686L235 711L177 705L62 705L62 800L345 800L345 738L258 646L224 628L224 623L254 626Q306 624 335.50 594.50Q365 565 366 511Q365 475 350.50 449Q336 423 311.50 406Q287 389 254 381Q221 373 186 373Q147 373 113.50 379.50Q80 386 56 397L79 487Q120 468 169 468Z"  horiz-adv-x="412" vert-adv-y="1000"  />

      
      <glyph glyph-name="unib4" unicode="&#xb4;" d="M113 720L245 720L245 690L134 566L60 566L113 720Z"  horiz-adv-x="305" vert-adv-y="1000"  />

      
      <glyph glyph-name="unib5" unicode="&#xb5;" d="M182 500L182 227Q182 163 202.50 130.50Q223 98 274 98Q320 98 348 121Q376 144 388 185L388 500L518 500L518 163Q518 122 520.50 80.50Q523 39 533 0L437 0L405 74L401 74Q384 39 351 13.50Q318-12 265-12Q226-12 205 2Q184 16 166 38L161 38L182-67L182-200L52-200L52 500L182 500Z"  horiz-adv-x="569" vert-adv-y="1000"  />

      
      <glyph glyph-name="uni03BC" unicode="&#x03BC;" d="M182 500L182 227Q182 163 202.50 130.50Q223 98 274 98Q320 98 348 121Q376 144 388 185L388 500L518 500L518 163Q518 122 520.50 80.50Q523 39 533 0L437 0L405 74L401 74Q384 39 351 13.50Q318-12 265-12Q226-12 205 2Q184 16 166 38L161 38L182-67L182-200L52-200L52 500L182 500Z"  horiz-adv-x="569" vert-adv-y="1000"  />

      
      <glyph glyph-name="unib6" unicode="&#xb6;" d="M362 700L469 700L469-130L362-130L362 700M178 294Q145 294 117 310.50Q89 327 68.50 355.50Q48 384 37 420.50Q26 457 26 498Q26 538 39 574.50Q52 611 76 639Q100 667 134 683.50Q168 700 210 700L284 700L284-130L178-130L178 294Z"  horiz-adv-x="529" vert-adv-y="1000"  />

      
      <glyph glyph-name="unib7" unicode="&#xb7;" d="M45 316Q45 351 67 371.50Q89 392 125 392Q163 392 185 371.50Q207 351 207 316Q207 281 185 260Q163 239 125 239Q89 239 67 260Q45 281 45 316Z"  horiz-adv-x="253" vert-adv-y="1000"  />

      
      <glyph glyph-name="unib8" unicode="&#xb8;" d="M208 0L184-43Q225-47 248.50-64.50Q272-82 272-118Q272-141 260.50-158Q249-175 229-186.50Q209-198 182-204Q155-210 124-210Q93-210 60-204L69-156Q76-157 82-157Q88-157 93-157Q131-157 142-148Q153-139 153-127Q153-99 67-95L124 0L208 0Z"  horiz-adv-x="332" vert-adv-y="1000"  />

      
      <glyph glyph-name="unib9" unicode="&#xb9;" d="M72 480L169 480L169 644L179 690L149 658L90 619L41 696L199 807L284 807L284 480L372 480L372 380L72 380L72 480Z"  horiz-adv-x="412" vert-adv-y="1000"  />

      
      <glyph glyph-name="uniba" unicode="&#xba;" d="M34 542Q34 587 47 619Q60 651 83 672Q106 693 138.50 702.50Q171 712 209 712Q247 712 279 703Q311 694 334.50 674Q358 654 371 621.50Q384 589 385 542Q384 495 371 462.50Q358 430 334.50 410Q311 390 279 381Q247 372 209 372Q171 372 138.50 381Q106 390 83 410Q60 430 47 462.50Q34 495 34 542M150 542Q150 456 209 456Q240 456 253.50 474.50Q267 493 268 542Q267 590 253.50 609Q240 628 209 628Q178 628 164 609Q150 590 150 542Z"  horiz-adv-x="419" vert-adv-y="1000"  />

      
      <glyph glyph-name="unibb" unicode="&#xbb;" d="M264 266L111 50L39 106L121 228L166 267L121 302L34 423L104 479L264 266M459 268L299 38L220 100L307 226L355 267L307 303L214 427L293 489L459 268Z"  horiz-adv-x="488" vert-adv-y="1000"  />

      
      <glyph glyph-name="unibc" unicode="&#xbc;" d="M609 715L694 665L264-14L178 39L609 715M833 78L757 78L757 0L656 0L656 78L449 78L449 145L667 428L757 428L757 167L833 167L833 78M656 253L662 306L657 306L635 257L587 191L551 159L603 167L656 167L656 253M165 544L176 590L145 558L86 519L37 596L195 707L280 707L280 280L165 280L165 544Z"  horiz-adv-x="880" vert-adv-y="1000"  />

      
      <glyph glyph-name="unibd" unicode="&#xbd;" d="M609 715L694 665L264-14L178 39L609 715M841 300Q841 241 811 199Q781 157 739 119L692 94L692 90L751 101L857 101L857 0L544 0L544 71Q570 89 602 113Q634 137 661.50 164.50Q689 192 707.50 221Q726 250 726 276Q726 325 670 325Q643 325 619 316.50Q595 308 577 297L543 387Q578 408 617.50 417.50Q657 427 693 427Q764 427 802.50 394.50Q841 362 841 300M165 544L176 590L145 558L86 519L37 596L195 707L280 707L280 280L165 280L165 544Z"  horiz-adv-x="903" vert-adv-y="1000"  />

      
      <glyph glyph-name="unibe" unicode="&#xbe;" d="M634 715L719 665L289-14L203 39L634 715M858 78L782 78L782 0L681 0L681 78L474 78L474 145L692 428L782 428L782 167L858 167L858 78M681 253L687 306L682 306L660 257L612 191L576 159L628 167L681 167L681 253M161 368Q205 368 223.50 382Q242 396 243 419Q242 442 223 455Q204 468 153 468L111 468L111 506L184 586L227 611L169 605L54 605L54 700L337 700L337 638L250 546L216 528L216 523L246 526Q298 524 327.50 494.50Q357 465 358 411Q357 375 342.50 349Q328 323 303.50 306Q279 289 246 281Q213 273 178 273Q139 273 105.50 279.50Q72 286 48 297L71 387Q112 368 161 368Z"  horiz-adv-x="905" vert-adv-y="1000"  />

      
      <glyph glyph-name="unibf" unicode="&#xbf;" d="M317 293Q322 241 312.50 204.50Q303 168 285 141.50Q267 115 245 96Q223 77 203.50 59Q184 41 170.50 21.50Q157 2 157-25Q157-60 177-81.50Q197-103 247-103Q263-103 281-99.50Q299-96 317-89.50Q335-83 351.50-74.50Q368-66 381-56L430-152Q392-178 343-195Q294-212 224-212Q130-212 76.50-167Q23-122 23-44Q23 7 36.50 40Q50 73 70.50 96.50Q91 120 114.50 138Q138 156 158.50 176.50Q179 197 192.50 224Q206 251 206 293L317 293M178 435Q178 470 200 490.50Q222 511 258 511Q296 511 318 490.50Q340 470 340 435Q340 400 318 379Q296 358 258 358Q222 358 200 379Q178 400 178 435Z"  horiz-adv-x="454" vert-adv-y="1000"  />

      
      <glyph glyph-name="unic0" unicode="&#xc0;" d="M405 155L190 155L137 0L0 0L252 705L353 705L605 0L461 0L405 155M225 265L375 265L323 421L302 531L297 531L276 420L225 265M399 752L294 752L136 840L136 870L295 870L399 752Z"  horiz-adv-x="605" vert-adv-y="1000"  />

      
      <glyph glyph-name="unic1" unicode="&#xc1;" d="M405 155L190 155L137 0L0 0L252 705L353 705L605 0L461 0L405 155M225 265L375 265L323 421L302 531L297 531L276 420L225 265M309 870L468 870L468 840L308 752L205 752L309 870Z"  horiz-adv-x="605" vert-adv-y="1000"  />

      
      <glyph glyph-name="unic2" unicode="&#xc2;" d="M405 155L190 155L137 0L0 0L252 705L353 705L605 0L461 0L405 155M225 265L375 265L323 421L302 531L297 531L276 420L225 265M257 870L353 870L480 777L480 738L381 738L324 779L304 813L283 780L221 738L124 738L124 778L257 870Z"  horiz-adv-x="605" vert-adv-y="1000"  />

      
      <glyph glyph-name="unic3" unicode="&#xc3;" d="M405 155L190 155L137 0L0 0L252 705L353 705L605 0L461 0L405 155M225 265L375 265L323 421L302 531L297 531L276 420L225 265M113 800Q145 835 174.50 848Q204 861 233 861Q255 861 277 855.50Q299 850 319.50 843.50Q340 837 360 831.50Q380 826 398 826Q414 826 429 831Q444 836 458 850L483 783Q455 757 428.50 746.50Q402 736 377 736Q354 736 333 741.50Q312 747 291.50 754Q271 761 251 766.50Q231 772 212 772Q193 772 174.50 764.50Q156 757 137 737L113 800Z"  horiz-adv-x="605" vert-adv-y="1000"  />

      
      <glyph glyph-name="unic4" unicode="&#xc4;" d="M405 155L190 155L137 0L0 0L252 705L353 705L605 0L461 0L405 155M225 265L375 265L323 421L302 531L297 531L276 420L225 265M124 798Q124 824 142 840Q160 856 200 856Q239 856 257 840Q275 824 275 798Q275 772 257 756.50Q239 741 200 741Q160 741 142 756.50Q124 772 124 798M338 798Q338 824 356 840Q374 856 413 856Q453 856 471 840Q489 824 489 798Q489 772 471 756.50Q453 741 413 741Q374 741 356 756.50Q338 772 338 798Z"  horiz-adv-x="605" vert-adv-y="1000"  />

      
      <glyph glyph-name="unic5" unicode="&#xc5;" d="M175 771Q175 789 181 805.50Q187 822 201.50 834.50Q216 847 240.50 854Q265 861 303 861Q373 861 402 837Q431 813 431 771Q431 742 415 720.50Q399 699 358 689L605 0L461 0L405 155L190 155L137 0L0 0L246 689Q207 698 191 720Q175 742 175 771M225 265L375 265L323 421L302 531L297 531L276 420L225 265M259 771Q259 740 303 740Q328 740 338 748Q348 756 348 771Q348 788 337.50 796Q327 804 303 804Q259 804 259 771Z"  horiz-adv-x="605" vert-adv-y="1000"  />

      
      <glyph glyph-name="unic6" unicode="&#xc6;" d="M394 532L358 429L274 281L400 281L400 532L394 532M400 170L214 170L115 0L-29 0L395 700L814 700L814 578L537 578L537 415L789 415L789 293L537 293L537 122L819 122L819 0L400 0L400 170Z"  horiz-adv-x="862" vert-adv-y="1000"  />

      
      <glyph glyph-name="unic7" unicode="&#xc7;" d="M534 29Q508 10 468.50 0Q429-10 385-13L369-43Q410-47 433.50-64.50Q457-82 457-118Q457-141 445.50-158Q434-175 414-186.50Q394-198 367-204Q340-210 309-210Q278-210 245-204L254-156Q261-157 267-157Q273-157 278-157Q316-157 327-148Q338-139 338-127Q338-99 252-95L302-11Q247-4 199 19.50Q151 43 115 87Q79 131 58.50 196Q38 261 38 350Q38 453 66.50 522.50Q95 592 140.50 634.50Q186 677 242 695.50Q298 714 354 714Q414 714 455.50 706Q497 698 524 687L497 571Q474 582 442.50 587Q411 592 366 592Q283 592 232.50 533Q182 474 182 350Q182 296 194 251.50Q206 207 230.50 175.50Q255 144 291.50 126.50Q328 109 376 109Q421 109 452 118Q483 127 506 141L534 29Z"  horiz-adv-x="559" vert-adv-y="1000"  />

      
      <glyph glyph-name="unic8" unicode="&#xc8;" d="M60 700L475 700L475 578L197 578L197 415L450 415L450 293L197 293L197 122L480 122L480 0L60 0L60 700M352 752L247 752L89 840L89 870L248 870L352 752Z"  horiz-adv-x="522" vert-adv-y="1000"  />

      
      <glyph glyph-name="unic9" unicode="&#xc9;" d="M60 700L475 700L475 578L197 578L197 415L450 415L450 293L197 293L197 122L480 122L480 0L60 0L60 700M293 870L452 870L452 840L292 752L189 752L293 870Z"  horiz-adv-x="522" vert-adv-y="1000"  />

      
      <glyph glyph-name="unica" unicode="&#xca;" d="M60 700L475 700L475 578L197 578L197 415L450 415L450 293L197 293L197 122L480 122L480 0L60 0L60 700M219 870L315 870L442 777L442 738L343 738L286 779L266 813L245 780L183 738L86 738L86 778L219 870Z"  horiz-adv-x="522" vert-adv-y="1000"  />

      
      <glyph glyph-name="unicb" unicode="&#xcb;" d="M60 700L475 700L475 578L197 578L197 415L450 415L450 293L197 293L197 122L480 122L480 0L60 0L60 700M84 798Q84 824 102 840Q120 856 160 856Q199 856 217 840Q235 824 235 798Q235 772 217 756.50Q199 741 160 741Q120 741 102 756.50Q84 772 84 798M298 798Q298 824 316 840Q334 856 373 856Q413 856 431 840Q449 824 449 798Q449 772 431 756.50Q413 741 373 741Q334 741 316 756.50Q298 772 298 798Z"  horiz-adv-x="522" vert-adv-y="1000"  />

      
      <glyph glyph-name="unicc" unicode="&#xcc;" d="M74 700L211 700L211 0L74 0L74 700M241 752L136 752L-22 840L-22 870L137 870L241 752Z"  horiz-adv-x="285" vert-adv-y="1000"  />

      
      <glyph glyph-name="unicd" unicode="&#xcd;" d="M74 700L211 700L211 0L74 0L74 700M153 870L312 870L312 840L152 752L49 752L153 870Z"  horiz-adv-x="285" vert-adv-y="1000"  />

      
      <glyph glyph-name="unice" unicode="&#xce;" d="M74 700L211 700L211 0L74 0L74 700M97 870L193 870L320 777L320 738L221 738L164 779L144 813L123 780L61 738L-36 738L-36 778L97 870Z"  horiz-adv-x="285" vert-adv-y="1000"  />

      
      <glyph glyph-name="unicf" unicode="&#xcf;" d="M74 700L211 700L211 0L74 0L74 700M-38 798Q-38 824-20 840Q-2 856 38 856Q77 856 95 840Q113 824 113 798Q113 772 95 756.50Q77 741 38 741Q-2 741-20 756.50Q-38 772-38 798M176 798Q176 824 194 840Q212 856 251 856Q291 856 309 840Q327 824 327 798Q327 772 309 756.50Q291 741 251 741Q212 741 194 756.50Q176 772 176 798Z"  horiz-adv-x="285" vert-adv-y="1000"  />

      
      <glyph glyph-name="unid0" unicode="&#xd0;" d="M-6 401L82 401L82 700Q103 703 129.50 705Q156 707 184 708Q212 709 238.50 709.50Q265 710 286 710Q379 710 445 684Q511 658 552 611Q593 564 612 499Q631 434 631 356Q631 285 613 219Q595 153 553 102Q511 51 442.50 20Q374-11 273-11Q257-11 230.50-10Q204-9 175.50-7.50Q147-6 121-4.50Q95-3 82-1L82 321L-6 321L-6 401M297 588Q275 588 252.50 587Q230 586 219 584L219 401L359 401L359 321L219 321L219 114Q223 113 232.50 112.50Q242 112 253 111.50Q264 111 274 111Q284 111 289 111Q347 111 385.50 131.50Q424 152 446.50 186Q469 220 478 264.50Q487 309 487 356Q487 397 479 438.50Q471 480 449.50 513Q428 546 391 567Q354 588 297 588Z"  horiz-adv-x="669" vert-adv-y="1000"  />

      
      <glyph glyph-name="unid1" unicode="&#xd1;" d="M234 365L179 475L174 475L190 365L190 0L60 0L60 705L160 705L425 332L478 225L483 225L467 332L467 700L597 700L597-5L497-5L234 365M138 800Q170 835 199.50 848Q229 861 258 861Q280 861 302 855.50Q324 850 344.50 843.50Q365 837 385 831.50Q405 826 423 826Q439 826 454 831Q469 836 483 850L508 783Q480 757 453.50 746.50Q427 736 402 736Q379 736 358 741.50Q337 747 316.50 754Q296 761 276 766.50Q256 772 237 772Q218 772 199.50 764.50Q181 757 162 737L138 800Z"  horiz-adv-x="657" vert-adv-y="1000"  />

      
      <glyph glyph-name="unid2" unicode="&#xd2;" d="M38 350Q38 525 115 619.50Q192 714 335 714Q410 714 466 688Q522 662 559 614Q596 566 614 499Q632 432 632 350Q632 175 554.50 80.50Q477-14 335-14Q259-14 203 12Q147 38 110.50 86Q74 134 56 201Q38 268 38 350M182 350Q182 297 191 252.50Q200 208 218.50 176Q237 144 266 126Q295 108 335 108Q408 108 448 165Q488 222 488 350Q488 401 479.50 445Q471 489 453 522Q435 555 406 573.50Q377 592 335 592Q262 592 222 533.50Q182 475 182 350M412 752L307 752L149 840L149 870L308 870L412 752Z"  horiz-adv-x="670" vert-adv-y="1000"  />

      
      <glyph glyph-name="unid3" unicode="&#xd3;" d="M38 350Q38 525 115 619.50Q192 714 335 714Q410 714 466 688Q522 662 559 614Q596 566 614 499Q632 432 632 350Q632 175 554.50 80.50Q477-14 335-14Q259-14 203 12Q147 38 110.50 86Q74 134 56 201Q38 268 38 350M182 350Q182 297 191 252.50Q200 208 218.50 176Q237 144 266 126Q295 108 335 108Q408 108 448 165Q488 222 488 350Q488 401 479.50 445Q471 489 453 522Q435 555 406 573.50Q377 592 335 592Q262 592 222 533.50Q182 475 182 350M368 870L527 870L527 840L367 752L264 752L368 870Z"  horiz-adv-x="670" vert-adv-y="1000"  />

      
      <glyph glyph-name="unid4" unicode="&#xd4;" d="M38 350Q38 525 115 619.50Q192 714 335 714Q410 714 466 688Q522 662 559 614Q596 566 614 499Q632 432 632 350Q632 175 554.50 80.50Q477-14 335-14Q259-14 203 12Q147 38 110.50 86Q74 134 56 201Q38 268 38 350M182 350Q182 297 191 252.50Q200 208 218.50 176Q237 144 266 126Q295 108 335 108Q408 108 448 165Q488 222 488 350Q488 401 479.50 445Q471 489 453 522Q435 555 406 573.50Q377 592 335 592Q262 592 222 533.50Q182 475 182 350M287 870L383 870L510 777L510 738L411 738L354 779L334 813L313 780L251 738L154 738L154 778L287 870Z"  horiz-adv-x="670" vert-adv-y="1000"  />

      
      <glyph glyph-name="unid5" unicode="&#xd5;" d="M38 350Q38 525 115 619.50Q192 714 335 714Q410 714 466 688Q522 662 559 614Q596 566 614 499Q632 432 632 350Q632 175 554.50 80.50Q477-14 335-14Q259-14 203 12Q147 38 110.50 86Q74 134 56 201Q38 268 38 350M182 350Q182 297 191 252.50Q200 208 218.50 176Q237 144 266 126Q295 108 335 108Q408 108 448 165Q488 222 488 350Q488 401 479.50 445Q471 489 453 522Q435 555 406 573.50Q377 592 335 592Q262 592 222 533.50Q182 475 182 350M144 800Q176 835 205.50 848Q235 861 264 861Q286 861 308 855.50Q330 850 350.50 843.50Q371 837 391 831.50Q411 826 429 826Q445 826 460 831Q475 836 489 850L514 783Q486 757 459.50 746.50Q433 736 408 736Q385 736 364 741.50Q343 747 322.50 754Q302 761 282 766.50Q262 772 243 772Q224 772 205.50 764.50Q187 757 168 737L144 800Z"  horiz-adv-x="670" vert-adv-y="1000"  />

      
      <glyph glyph-name="unid6" unicode="&#xd6;" d="M38 350Q38 525 115 619.50Q192 714 335 714Q410 714 466 688Q522 662 559 614Q596 566 614 499Q632 432 632 350Q632 175 554.50 80.50Q477-14 335-14Q259-14 203 12Q147 38 110.50 86Q74 134 56 201Q38 268 38 350M182 350Q182 297 191 252.50Q200 208 218.50 176Q237 144 266 126Q295 108 335 108Q408 108 448 165Q488 222 488 350Q488 401 479.50 445Q471 489 453 522Q435 555 406 573.50Q377 592 335 592Q262 592 222 533.50Q182 475 182 350M150 798Q150 824 168 840Q186 856 226 856Q265 856 283 840Q301 824 301 798Q301 772 283 756.50Q265 741 226 741Q186 741 168 756.50Q150 772 150 798M364 798Q364 824 382 840Q400 856 439 856Q479 856 497 840Q515 824 515 798Q515 772 497 756.50Q479 741 439 741Q400 741 382 756.50Q364 772 364 798Z"  horiz-adv-x="670" vert-adv-y="1000"  />

      
      <glyph glyph-name="unid7" unicode="&#xd7;" d="M134 547L265 417L395 547L474 466L344 339L474 210L395 128L265 259L133 127L54 208L185 339L56 466L134 547Z"  horiz-adv-x="527" vert-adv-y="1000"  />

      
      <glyph glyph-name="unid8" unicode="&#xd8;" d="M111 86Q74 134 56 200.50Q38 267 38 350Q38 525 115 619.50Q192 714 335 714Q380 714 418 704Q456 694 487 676L512 715L597 665L562 609Q597 561 614.50 495.50Q632 430 632 350Q632 175 554.50 80.50Q477-14 335-14Q291-14 255-5.50Q219 3 188 19L167-14L81 39L111 86M182 350Q182 314 186 282Q190 250 198 223L417 565Q382 592 335 592Q262 592 222 533.50Q182 475 182 350M488 350Q488 383 485 413.50Q482 444 474 470L259 130Q292 108 335 108Q408 108 448 165Q488 222 488 350Z"  horiz-adv-x="670" vert-adv-y="1000"  />

      
      <glyph glyph-name="unid9" unicode="&#xd9;" d="M440 700L570 700L570 248Q570 180 552 131Q534 82 502 50Q470 18 424 3Q378-12 323-12Q57-12 57 231L57 700L194 700L194 258Q194 217 201.50 188.50Q209 160 225 142.50Q241 125 265 117.50Q289 110 321 110Q384 110 412 145Q440 180 440 258L440 700M395 752L290 752L132 840L132 870L291 870L395 752Z"  horiz-adv-x="627" vert-adv-y="1000"  />

      
      <glyph glyph-name="unida" unicode="&#xda;" d="M440 700L570 700L570 248Q570 180 552 131Q534 82 502 50Q470 18 424 3Q378-12 323-12Q57-12 57 231L57 700L194 700L194 258Q194 217 201.50 188.50Q209 160 225 142.50Q241 125 265 117.50Q289 110 321 110Q384 110 412 145Q440 180 440 258L440 700M365 870L524 870L524 840L364 752L261 752L365 870Z"  horiz-adv-x="627" vert-adv-y="1000"  />

      
      <glyph glyph-name="unidb" unicode="&#xdb;" d="M440 700L570 700L570 248Q570 180 552 131Q534 82 502 50Q470 18 424 3Q378-12 323-12Q57-12 57 231L57 700L194 700L194 258Q194 217 201.50 188.50Q209 160 225 142.50Q241 125 265 117.50Q289 110 321 110Q384 110 412 145Q440 180 440 258L440 700M273 870L369 870L496 777L496 738L397 738L340 779L320 813L299 780L237 738L140 738L140 778L273 870Z"  horiz-adv-x="627" vert-adv-y="1000"  />

      
      <glyph glyph-name="unidc" unicode="&#xdc;" d="M440 700L570 700L570 248Q570 180 552 131Q534 82 502 50Q470 18 424 3Q378-12 323-12Q57-12 57 231L57 700L194 700L194 258Q194 217 201.50 188.50Q209 160 225 142.50Q241 125 265 117.50Q289 110 321 110Q384 110 412 145Q440 180 440 258L440 700M133 798Q133 824 151 840Q169 856 209 856Q248 856 266 840Q284 824 284 798Q284 772 266 756.50Q248 741 209 741Q169 741 151 756.50Q133 772 133 798M347 798Q347 824 365 840Q383 856 422 856Q462 856 480 840Q498 824 498 798Q498 772 480 756.50Q462 741 422 741Q383 741 365 756.50Q347 772 347 798Z"  horiz-adv-x="627" vert-adv-y="1000"  />

      
      <glyph glyph-name="unidd" unicode="&#xdd;" d="M228 260L-2 700L161 700L289 437L303 363L308 363L323 439L447 700L594 700L365 261L365 0L228 0L228 260M326 870L485 870L485 840L325 752L222 752L326 870Z"  horiz-adv-x="592" vert-adv-y="1000"  />

      
      <glyph glyph-name="unide" unicode="&#xde;" d="M60 700L197 700L197 628Q211 629 225 629.50Q239 630 253 630Q305 630 357.50 621.50Q410 613 452 587.50Q494 562 520.50 516.50Q547 471 547 398Q547 332 524 286.50Q501 241 463 212Q425 183 376.50 170Q328 157 276 157Q271 157 260 157Q249 157 237 157.50Q225 158 213.50 159Q202 160 197 161L197 0L60 0L60 700M264 512Q244 512 226 510.50Q208 509 197 507L197 280Q201 279 209 278Q217 277 226 276.50Q235 276 243.50 276Q252 276 256 276Q283 276 309.50 281Q336 286 357 299.50Q378 313 390.50 337Q403 361 403 400Q403 433 391 454.50Q379 476 359.50 489Q340 502 315 507Q290 512 264 512Z"  horiz-adv-x="572" vert-adv-y="1000"  />

      
      <glyph glyph-name="unidf" unicode="&#xdf;" d="M81 390L12 390L12 500L81 500Q81 558 97 597.50Q113 637 141.50 661.50Q170 686 209.50 697Q249 708 296 708Q347 708 387.50 696.50Q428 685 456.50 664Q485 643 500.50 613.50Q516 584 516 548Q516 509 498.50 485Q481 461 459.50 444Q438 427 420.50 412Q403 397 403 375Q403 357 417.50 346Q432 335 454.50 325.50Q477 316 502.50 305.50Q528 295 550.50 278Q573 261 587.50 234.50Q602 208 602 167Q602 132 591 99.50Q580 67 556.50 41.50Q533 16 497.50 1Q462-14 414-14Q367-14 327.50-2.50Q288 9 260 26L295 123Q318 110 341 100Q364 90 403 90Q433 90 452.50 110.50Q472 131 472 160Q472 181 457.50 194Q443 207 420.50 217.50Q398 228 372.50 238Q347 248 324.50 263.50Q302 279 287.50 302Q273 325 273 361Q273 404 290.50 428Q308 452 329.50 468.50Q351 485 368.50 499Q386 513 386 537Q386 550 379 561.50Q372 573 360 581Q348 589 333 594Q318 599 303 599Q255 599 232.50 575.50Q210 552 210 488L210 0L81 0L81 390Z"  horiz-adv-x="630" vert-adv-y="1000"  />

      
      <glyph glyph-name="unie0" unicode="&#xe0;" d="M54 471Q94 489 149 499.50Q204 510 264 510Q316 510 351 497.50Q386 485 406.50 462Q427 439 435.50 407Q444 375 444 335Q444 291 441 246.50Q438 202 437.50 159Q437 116 440 75.50Q443 35 455-1L349-1L328 68L323 68Q303 37 267.50 14.50Q232-8 176-8Q141-8 113 2.50Q85 13 65 32.50Q45 52 34 78.50Q23 105 23 138Q23 184 43.50 215.50Q64 247 102.50 266.50Q141 286 194.50 293.50Q248 301 314 298Q321 354 306 378.50Q291 403 239 403Q200 403 156.50 395Q113 387 85 374L54 471M219 99Q258 99 281 116.50Q304 134 315 154L315 219Q284 222 255.50 220Q227 218 205 211Q183 204 170 191Q157 178 157 158Q157 130 173.50 114.50Q190 99 219 99M311 566L239 566L115 690L115 720L251 720L311 566Z"  horiz-adv-x="496" vert-adv-y="1000"  />

      
      <glyph glyph-name="unie1" unicode="&#xe1;" d="M54 471Q94 489 149 499.50Q204 510 264 510Q316 510 351 497.50Q386 485 406.50 462Q427 439 435.50 407Q444 375 444 335Q444 291 441 246.50Q438 202 437.50 159Q437 116 440 75.50Q443 35 455-1L349-1L328 68L323 68Q303 37 267.50 14.50Q232-8 176-8Q141-8 113 2.50Q85 13 65 32.50Q45 52 34 78.50Q23 105 23 138Q23 184 43.50 215.50Q64 247 102.50 266.50Q141 286 194.50 293.50Q248 301 314 298Q321 354 306 378.50Q291 403 239 403Q200 403 156.50 395Q113 387 85 374L54 471M219 99Q258 99 281 116.50Q304 134 315 154L315 219Q284 222 255.50 220Q227 218 205 211Q183 204 170 191Q157 178 157 158Q157 130 173.50 114.50Q190 99 219 99M237 720L369 720L369 690L258 566L184 566L237 720Z"  horiz-adv-x="496" vert-adv-y="1000"  />

      
      <glyph glyph-name="unie2" unicode="&#xe2;" d="M54 471Q94 489 149 499.50Q204 510 264 510Q316 510 351 497.50Q386 485 406.50 462Q427 439 435.50 407Q444 375 444 335Q444 291 441 246.50Q438 202 437.50 159Q437 116 440 75.50Q443 35 455-1L349-1L328 68L323 68Q303 37 267.50 14.50Q232-8 176-8Q141-8 113 2.50Q85 13 65 32.50Q45 52 34 78.50Q23 105 23 138Q23 184 43.50 215.50Q64 247 102.50 266.50Q141 286 194.50 293.50Q248 301 314 298Q321 354 306 378.50Q291 403 239 403Q200 403 156.50 395Q113 387 85 374L54 471M219 99Q258 99 281 116.50Q304 134 315 154L315 219Q284 222 255.50 220Q227 218 205 211Q183 204 170 191Q157 178 157 158Q157 130 173.50 114.50Q190 99 219 99M216 732L302 732L413 550L310 550L271 616L254 665L237 616L192 550L93 550L216 732Z"  horiz-adv-x="496" vert-adv-y="1000"  />

      
      <glyph glyph-name="unie3" unicode="&#xe3;" d="M54 471Q94 489 149 499.50Q204 510 264 510Q316 510 351 497.50Q386 485 406.50 462Q427 439 435.50 407Q444 375 444 335Q444 291 441 246.50Q438 202 437.50 159Q437 116 440 75.50Q443 35 455-1L349-1L328 68L323 68Q303 37 267.50 14.50Q232-8 176-8Q141-8 113 2.50Q85 13 65 32.50Q45 52 34 78.50Q23 105 23 138Q23 184 43.50 215.50Q64 247 102.50 266.50Q141 286 194.50 293.50Q248 301 314 298Q321 354 306 378.50Q291 403 239 403Q200 403 156.50 395Q113 387 85 374L54 471M219 99Q258 99 281 116.50Q304 134 315 154L315 219Q284 222 255.50 220Q227 218 205 211Q183 204 170 191Q157 178 157 158Q157 130 173.50 114.50Q190 99 219 99M86 658Q117 695 143.50 709Q170 723 194 723Q214 723 232.50 716Q251 709 269 701Q287 693 304 686Q321 679 339 679Q353 679 367.50 685Q382 691 398 706L418 636Q389 604 364.50 592Q340 580 317 580Q297 580 278 586.50Q259 593 241 601Q223 609 205 615.50Q187 622 169 622Q154 622 138 615.50Q122 609 105 593L86 658Z"  horiz-adv-x="496" vert-adv-y="1000"  />

      
      <glyph glyph-name="unie4" unicode="&#xe4;" d="M54 471Q94 489 149 499.50Q204 510 264 510Q316 510 351 497.50Q386 485 406.50 462Q427 439 435.50 407Q444 375 444 335Q444 291 441 246.50Q438 202 437.50 159Q437 116 440 75.50Q443 35 455-1L349-1L328 68L323 68Q303 37 267.50 14.50Q232-8 176-8Q141-8 113 2.50Q85 13 65 32.50Q45 52 34 78.50Q23 105 23 138Q23 184 43.50 215.50Q64 247 102.50 266.50Q141 286 194.50 293.50Q248 301 314 298Q321 354 306 378.50Q291 403 239 403Q200 403 156.50 395Q113 387 85 374L54 471M219 99Q258 99 281 116.50Q304 134 315 154L315 219Q284 222 255.50 220Q227 218 205 211Q183 204 170 191Q157 178 157 158Q157 130 173.50 114.50Q190 99 219 99M75 651Q75 683 94.50 702Q114 721 146 721Q178 721 196.50 702Q215 683 215 651Q215 621 196.50 602Q178 583 146 583Q114 583 94.50 602Q75 621 75 651M294 651Q294 683 312.50 702Q331 721 363 721Q395 721 414.50 702Q434 683 434 651Q434 621 414.50 602Q395 583 363 583Q331 583 312.50 602Q294 621 294 651Z"  horiz-adv-x="496" vert-adv-y="1000"  />

      
      <glyph glyph-name="unie5" unicode="&#xe5;" d="M54 471Q94 489 149 499.50Q204 510 264 510Q316 510 351 497.50Q386 485 406.50 462Q427 439 435.50 407Q444 375 444 335Q444 291 441 246.50Q438 202 437.50 159Q437 116 440 75.50Q443 35 455-1L349-1L328 68L323 68Q303 37 267.50 14.50Q232-8 176-8Q141-8 113 2.50Q85 13 65 32.50Q45 52 34 78.50Q23 105 23 138Q23 184 43.50 215.50Q64 247 102.50 266.50Q141 286 194.50 293.50Q248 301 314 298Q321 354 306 378.50Q291 403 239 403Q200 403 156.50 395Q113 387 85 374L54 471M219 99Q258 99 281 116.50Q304 134 315 154L315 219Q284 222 255.50 220Q227 218 205 211Q183 204 170 191Q157 178 157 158Q157 130 173.50 114.50Q190 99 219 99M144 647Q144 689 172.50 716Q201 743 255 743Q306 743 336 718.50Q366 694 366 647Q366 608 336.50 580.50Q307 553 255 553Q202 553 173 578.50Q144 604 144 647M216 647Q216 631 228 622.50Q240 614 255 614Q272 614 283 622Q294 630 294 647Q294 664 282.50 672.50Q271 681 255 681Q240 681 228 673Q216 665 216 647Z"  horiz-adv-x="496" vert-adv-y="1000"  />

      
      <glyph glyph-name="unie6" unicode="&#xe6;" d="M219 99Q258 99 281 116.50Q304 134 315 154L315 219Q284 222 255.50 220Q227 218 205 211Q183 204 170 191Q157 178 157 158Q157 130 173.50 114.50Q190 99 219 99M350 76Q323 42 283.50 17Q244-8 176-8Q141-8 113 2.50Q85 13 65 32.50Q45 52 34 78.50Q23 105 23 138Q23 184 43.50 215.50Q64 247 102 266.50Q140 286 193.50 293.50Q247 301 313 298Q320 354 305.50 378.50Q291 403 239 403Q200 403 159.50 392.50Q119 382 88 367L54 461Q92 481 148 495.50Q204 510 264 510Q316 510 347 496.50Q378 483 398 456Q423 484 463 499Q503 514 550 514Q588 514 624 504Q660 494 688 471Q716 448 733 409Q750 370 750 312Q750 291 747.50 267.50Q745 244 740 217L439 217Q443 154 472.50 122Q502 90 568 90Q609 90 641.50 102.50Q674 115 691 128L734 43Q704 19 652.50 2.50Q601-14 543-14Q479-14 430.50 9.50Q382 33 355 76L350 76M548 410Q497 410 472.50 379.50Q448 349 443 298L630 298Q633 352 613 381Q593 410 548 410Z"  horiz-adv-x="785" vert-adv-y="1000"  />

      
      <glyph glyph-name="unie7" unicode="&#xe7;" d="M411 31Q388 14 358.50 4Q329-6 296-11L278-43Q319-47 342.50-64.50Q366-82 366-118Q366-141 354.50-158Q343-175 323-186.50Q303-198 276-204Q249-210 218-210Q187-210 154-204L163-156Q170-157 176-157Q182-157 187-157Q225-157 236-148Q247-139 247-127Q247-99 161-95L211-11Q162-5 128 16.50Q94 38 73 71.50Q52 105 42.50 150.50Q33 196 33 250Q33 377 90 445.50Q147 514 256 514Q311 514 344.50 505Q378 496 405 482L374 376Q351 387 328.50 393Q306 399 277 399Q223 399 195 363.50Q167 328 167 250Q167 218 174 191Q181 164 195 144Q209 124 231.50 112.50Q254 101 284 101Q317 101 340 109.50Q363 118 381 130L411 31Z"  horiz-adv-x="433" vert-adv-y="1000"  />

      
      <glyph glyph-name="unie8" unicode="&#xe8;" d="M457 43Q427 19 375.50 2.50Q324-14 266-14Q145-14 89 56.50Q33 127 33 250Q33 382 96 448Q159 514 273 514Q311 514 347 504Q383 494 411 471Q439 448 456 409Q473 370 473 312Q473 291 470.50 267Q468 243 463 217L163 217Q166 154 195.50 122Q225 90 291 90Q332 90 364.50 102.50Q397 115 414 128L457 43M271 410Q220 410 195.50 379.50Q171 349 166 298L352 298Q356 352 335.50 381Q315 410 271 410M329 566L257 566L133 690L133 720L269 720L329 566Z"  horiz-adv-x="508" vert-adv-y="1000"  />

      
      <glyph glyph-name="unie9" unicode="&#xe9;" d="M457 43Q427 19 375.50 2.50Q324-14 266-14Q145-14 89 56.50Q33 127 33 250Q33 382 96 448Q159 514 273 514Q311 514 347 504Q383 494 411 471Q439 448 456 409Q473 370 473 312Q473 291 470.50 267Q468 243 463 217L163 217Q166 154 195.50 122Q225 90 291 90Q332 90 364.50 102.50Q397 115 414 128L457 43M271 410Q220 410 195.50 379.50Q171 349 166 298L352 298Q356 352 335.50 381Q315 410 271 410M274 720L406 720L406 690L295 566L221 566L274 720Z"  horiz-adv-x="508" vert-adv-y="1000"  />

      
      <glyph glyph-name="uniea" unicode="&#xea;" d="M457 43Q427 19 375.50 2.50Q324-14 266-14Q145-14 89 56.50Q33 127 33 250Q33 382 96 448Q159 514 273 514Q311 514 347 504Q383 494 411 471Q439 448 456 409Q473 370 473 312Q473 291 470.50 267Q468 243 463 217L163 217Q166 154 195.50 122Q225 90 291 90Q332 90 364.50 102.50Q397 115 414 128L457 43M271 410Q220 410 195.50 379.50Q171 349 166 298L352 298Q356 352 335.50 381Q315 410 271 410M221 732L307 732L418 550L315 550L276 616L259 665L242 616L197 550L98 550L221 732Z"  horiz-adv-x="508" vert-adv-y="1000"  />

      
      <glyph glyph-name="unieb" unicode="&#xeb;" d="M457 43Q427 19 375.50 2.50Q324-14 266-14Q145-14 89 56.50Q33 127 33 250Q33 382 96 448Q159 514 273 514Q311 514 347 504Q383 494 411 471Q439 448 456 409Q473 370 473 312Q473 291 470.50 267Q468 243 463 217L163 217Q166 154 195.50 122Q225 90 291 90Q332 90 364.50 102.50Q397 115 414 128L457 43M271 410Q220 410 195.50 379.50Q171 349 166 298L352 298Q356 352 335.50 381Q315 410 271 410M82 651Q82 683 101.50 702Q121 721 153 721Q185 721 203.50 702Q222 683 222 651Q222 621 203.50 602Q185 583 153 583Q121 583 101.50 602Q82 621 82 651M301 651Q301 683 319.50 702Q338 721 370 721Q402 721 421.50 702Q441 683 441 651Q441 621 421.50 602Q402 583 370 583Q338 583 319.50 602Q301 621 301 651Z"  horiz-adv-x="508" vert-adv-y="1000"  />

      
      <glyph glyph-name="uniec" unicode="&#xec;" d="M70 500L200 500L200 0L70 0L70 500M194 566L122 566L-2 690L-2 720L134 720L194 566Z"  horiz-adv-x="269" vert-adv-y="1000"  />

      
      <glyph glyph-name="unied" unicode="&#xed;" d="M70 500L200 500L200 0L70 0L70 500M124 720L256 720L256 690L145 566L71 566L124 720Z"  horiz-adv-x="269" vert-adv-y="1000"  />

      
      <glyph glyph-name="uniee" unicode="&#xee;" d="M70 500L200 500L200 0L70 0L70 500M93 732L179 732L290 550L187 550L148 616L131 665L114 616L69 550L-30 550L93 732Z"  horiz-adv-x="269" vert-adv-y="1000"  />

      
      <glyph glyph-name="unief" unicode="&#xef;" d="M70 500L200 500L200 0L70 0L70 500M-45 651Q-45 683-25.50 702Q-6 721 26 721Q58 721 76.50 702Q95 683 95 651Q95 621 76.50 602Q58 583 26 583Q-6 583-25.50 602Q-45 621-45 651M174 651Q174 683 192.50 702Q211 721 243 721Q275 721 294.50 702Q314 683 314 651Q314 621 294.50 602Q275 583 243 583Q211 583 192.50 602Q174 621 174 651Z"  horiz-adv-x="269" vert-adv-y="1000"  />

      
      <glyph glyph-name="unif0" unicode="&#xf0;" d="M163 243Q163 171 196 134Q229 97 284 97Q336 97 369 141.50Q402 186 402 280Q402 293 400.50 314Q399 335 395 347Q379 370 347 379.50Q315 389 285 389Q225 389 194 347.50Q163 306 163 243M197 584L241 614Q207 629 172 635L224 715Q249 708 281 695Q304 686 328 673L381 709L423 654L390 631Q402 622 413 611Q445 581 470 537.50Q495 494 510.50 436Q526 378 526 302Q526 221 507.50 161.50Q489 102 456 63Q423 24 377 5Q331-14 276-14Q217-14 172 5Q127 24 97 58.50Q67 93 52 140.50Q37 188 37 245Q37 299 54 345Q71 391 101.50 425.50Q132 460 175 479.50Q218 499 269 499Q307 499 339.50 488.50Q372 478 392 458Q380 494 358 524Q336 553 308 575L240 529L197 584Z"  horiz-adv-x="563" vert-adv-y="1000"  />

      
      <glyph glyph-name="unif1" unicode="&#xf1;" d="M363 0L363 284Q363 345 345.50 372Q328 399 286 399Q249 399 223.50 377.50Q198 356 187 324L187 0L57 0L57 500L160 500L175 434L179 434Q202 466 240 490Q278 514 338 514Q375 514 404 504Q433 494 453 471Q473 448 483 408.50Q493 369 493 311L493 0L363 0M107 658Q138 695 164.50 709Q191 723 215 723Q235 723 253.50 716Q272 709 290 701Q308 693 325 686Q342 679 360 679Q374 679 388.50 685Q403 691 419 706L439 636Q410 604 385.50 592Q361 580 338 580Q318 580 299 586.50Q280 593 262 601Q244 609 226 615.50Q208 622 190 622Q175 622 159 615.50Q143 609 126 593L107 658Z"  horiz-adv-x="545" vert-adv-y="1000"  />

      
      <glyph glyph-name="unif2" unicode="&#xf2;" d="M33 250Q33 377 95 445.50Q157 514 269 514Q329 514 373 495Q417 476 446 441.50Q475 407 489.50 358Q504 309 504 250Q504 123 442.50 54.50Q381-14 269-14Q209-14 165 5Q121 24 91.50 58.50Q62 93 47.50 142Q33 191 33 250M167 250Q167 217 173 189Q179 161 191 140Q203 119 222.50 107.50Q242 96 269 96Q320 96 345 133Q370 170 370 250Q370 319 347 361.50Q324 404 269 404Q221 404 194 368Q167 332 167 250M331 566L259 566L135 690L135 720L271 720L331 566Z"  horiz-adv-x="537" vert-adv-y="1000"  />

      
      <glyph glyph-name="unif3" unicode="&#xf3;" d="M33 250Q33 377 95 445.50Q157 514 269 514Q329 514 373 495Q417 476 446 441.50Q475 407 489.50 358Q504 309 504 250Q504 123 442.50 54.50Q381-14 269-14Q209-14 165 5Q121 24 91.50 58.50Q62 93 47.50 142Q33 191 33 250M167 250Q167 217 173 189Q179 161 191 140Q203 119 222.50 107.50Q242 96 269 96Q320 96 345 133Q370 170 370 250Q370 319 347 361.50Q324 404 269 404Q221 404 194 368Q167 332 167 250M275 720L407 720L407 690L296 566L222 566L275 720Z"  horiz-adv-x="537" vert-adv-y="1000"  />

      
      <glyph glyph-name="unif4" unicode="&#xf4;" d="M33 250Q33 377 95 445.50Q157 514 269 514Q329 514 373 495Q417 476 446 441.50Q475 407 489.50 358Q504 309 504 250Q504 123 442.50 54.50Q381-14 269-14Q209-14 165 5Q121 24 91.50 58.50Q62 93 47.50 142Q33 191 33 250M167 250Q167 217 173 189Q179 161 191 140Q203 119 222.50 107.50Q242 96 269 96Q320 96 345 133Q370 170 370 250Q370 319 347 361.50Q324 404 269 404Q221 404 194 368Q167 332 167 250M231 732L317 732L428 550L325 550L286 616L269 665L252 616L207 550L108 550L231 732Z"  horiz-adv-x="537" vert-adv-y="1000"  />

      
      <glyph glyph-name="unif5" unicode="&#xf5;" d="M33 250Q33 377 95 445.50Q157 514 269 514Q329 514 373 495Q417 476 446 441.50Q475 407 489.50 358Q504 309 504 250Q504 123 442.50 54.50Q381-14 269-14Q209-14 165 5Q121 24 91.50 58.50Q62 93 47.50 142Q33 191 33 250M167 250Q167 217 173 189Q179 161 191 140Q203 119 222.50 107.50Q242 96 269 96Q320 96 345 133Q370 170 370 250Q370 319 347 361.50Q324 404 269 404Q221 404 194 368Q167 332 167 250M104 658Q135 695 161.50 709Q188 723 212 723Q232 723 250.50 716Q269 709 287 701Q305 693 322 686Q339 679 357 679Q371 679 385.50 685Q400 691 416 706L436 636Q407 604 382.50 592Q358 580 335 580Q315 580 296 586.50Q277 593 259 601Q241 609 223 615.50Q205 622 187 622Q172 622 156 615.50Q140 609 123 593L104 658Z"  horiz-adv-x="537" vert-adv-y="1000"  />

      
      <glyph glyph-name="unif6" unicode="&#xf6;" d="M33 250Q33 377 95 445.50Q157 514 269 514Q329 514 373 495Q417 476 446 441.50Q475 407 489.50 358Q504 309 504 250Q504 123 442.50 54.50Q381-14 269-14Q209-14 165 5Q121 24 91.50 58.50Q62 93 47.50 142Q33 191 33 250M167 250Q167 217 173 189Q179 161 191 140Q203 119 222.50 107.50Q242 96 269 96Q320 96 345 133Q370 170 370 250Q370 319 347 361.50Q324 404 269 404Q221 404 194 368Q167 332 167 250M88 651Q88 683 107.50 702Q127 721 159 721Q191 721 209.50 702Q228 683 228 651Q228 621 209.50 602Q191 583 159 583Q127 583 107.50 602Q88 621 88 651M307 651Q307 683 325.50 702Q344 721 376 721Q408 721 427.50 702Q447 683 447 651Q447 621 427.50 602Q408 583 376 583Q344 583 325.50 602Q307 621 307 651Z"  horiz-adv-x="537" vert-adv-y="1000"  />

      
      <glyph glyph-name="unif7" unicode="&#xf7;" d="M43 394L485 394L485 282L43 282L43 394M184 532Q184 567 206 587.50Q228 608 264 608Q302 608 324 587.50Q346 567 346 532Q346 497 324 476Q302 455 264 455Q228 455 206 476Q184 497 184 532M184 145Q184 180 206 200.50Q228 221 264 221Q302 221 324 200.50Q346 180 346 145Q346 110 324 89Q302 68 264 68Q228 68 206 89Q184 110 184 145Z"  horiz-adv-x="527" vert-adv-y="1000"  />

      
      <glyph glyph-name="unif8" unicode="&#xf8;" d="M33 250Q33 377 94.50 445.50Q156 514 268 514Q300 514 327 508.50Q354 503 377 492L401 526L481 467L454 429Q479 395 491 349.50Q503 304 503 250Q503 123 441.50 54.50Q380-14 268-14Q234-14 205.50-7.50Q177-1 153 10L128-24L45 36L76 79Q54 112 43.50 155.50Q33 199 33 250M369 250Q369 287 361 321L212 114Q234 96 268 96Q319 96 344 133Q369 170 369 250M167 250Q167 215 173 185L320 389Q299 404 268 404Q220 404 193.50 368Q167 332 167 250Z"  horiz-adv-x="536" vert-adv-y="1000"  />

      
      <glyph glyph-name="unif9" unicode="&#xf9;" d="M182 500L182 216Q182 155 196.50 128Q211 101 253 101Q290 101 314.50 123Q339 145 351 177L351 500L481 500L481 152Q481 111 485 71.50Q489 32 497 0L399 0L376 74L372 74Q349 36 308 11Q267-14 211-14Q173-14 143-4Q113 6 93 29Q73 52 62.50 91Q52 130 52 189L52 500L182 500M318 566L246 566L122 690L122 720L258 720L318 566Z"  horiz-adv-x="538" vert-adv-y="1000"  />

      
      <glyph glyph-name="unifa" unicode="&#xfa;" d="M182 500L182 216Q182 155 196.50 128Q211 101 253 101Q290 101 314.50 123Q339 145 351 177L351 500L481 500L481 152Q481 111 485 71.50Q489 32 497 0L399 0L376 74L372 74Q349 36 308 11Q267-14 211-14Q173-14 143-4Q113 6 93 29Q73 52 62.50 91Q52 130 52 189L52 500L182 500M261 720L393 720L393 690L282 566L208 566L261 720Z"  horiz-adv-x="538" vert-adv-y="1000"  />

      
      <glyph glyph-name="unifb" unicode="&#xfb;" d="M182 500L182 216Q182 155 196.50 128Q211 101 253 101Q290 101 314.50 123Q339 145 351 177L351 500L481 500L481 152Q481 111 485 71.50Q489 32 497 0L399 0L376 74L372 74Q349 36 308 11Q267-14 211-14Q173-14 143-4Q113 6 93 29Q73 52 62.50 91Q52 130 52 189L52 500L182 500M232 732L318 732L429 550L326 550L287 616L270 665L253 616L208 550L109 550L232 732Z"  horiz-adv-x="538" vert-adv-y="1000"  />

      
      <glyph glyph-name="unifc" unicode="&#xfc;" d="M182 500L182 216Q182 155 196.50 128Q211 101 253 101Q290 101 314.50 123Q339 145 351 177L351 500L481 500L481 152Q481 111 485 71.50Q489 32 497 0L399 0L376 74L372 74Q349 36 308 11Q267-14 211-14Q173-14 143-4Q113 6 93 29Q73 52 62.50 91Q52 130 52 189L52 500L182 500M88 651Q88 683 107.50 702Q127 721 159 721Q191 721 209.50 702Q228 683 228 651Q228 621 209.50 602Q191 583 159 583Q127 583 107.50 602Q88 621 88 651M307 651Q307 683 325.50 702Q344 721 376 721Q408 721 427.50 702Q447 683 447 651Q447 621 427.50 602Q408 583 376 583Q344 583 325.50 602Q307 621 307 651Z"  horiz-adv-x="538" vert-adv-y="1000"  />

      
      <glyph glyph-name="unifd" unicode="&#xfd;" d="M239 219L257 141L263 141L276 220L352 500L486 500L334 49Q315-7 297.50-53.50Q280-100 259-134Q238-168 212.50-186.50Q187-205 152-205Q100-205 69-188L93-84Q108-90 123-90Q146-90 167.50-70.50Q189-51 200 0L-9 500L147 500L239 219M254 720L386 720L386 690L275 566L201 566L254 720Z"  horiz-adv-x="478" vert-adv-y="1000"  />

      
      <glyph glyph-name="unife" unicode="&#xfe;" d="M57 700L187 700L187 457L191 457Q212 483 241.50 498.50Q271 514 319 514Q413 514 460 454.50Q507 395 507 263Q507 199 492 147.50Q477 96 447.50 60Q418 24 375.50 5Q333-14 278-14Q247-14 227-9.50Q207-5 187 5L187-200L57-200L57 700M280 404Q244 404 221.50 385Q199 366 187 328L187 120Q201 109 217.50 102.50Q234 96 261 96Q317 96 345 135.50Q373 175 373 266Q373 332 351 368Q329 404 280 404Z"  horiz-adv-x="540" vert-adv-y="1000"  />

      
      <glyph glyph-name="uniff" unicode="&#xff;" d="M239 219L257 141L263 141L276 220L352 500L486 500L334 49Q315-7 297.50-53.50Q280-100 259-134Q238-168 212.50-186.50Q187-205 152-205Q100-205 69-188L93-84Q108-90 123-90Q146-90 167.50-70.50Q189-51 200 0L-9 500L147 500L239 219M66 651Q66 683 85.50 702Q105 721 137 721Q169 721 187.50 702Q206 683 206 651Q206 621 187.50 602Q169 583 137 583Q105 583 85.50 602Q66 621 66 651M285 651Q285 683 303.50 702Q322 721 354 721Q386 721 405.50 702Q425 683 425 651Q425 621 405.50 602Q386 583 354 583Q322 583 303.50 602Q285 621 285 651Z"  horiz-adv-x="478" vert-adv-y="1000"  />

      
      <glyph glyph-name="uni0100" unicode="&#x0100;" d="M405 155L190 155L137 0L0 0L252 705L353 705L605 0L461 0L405 155M225 265L375 265L323 421L302 531L297 531L276 420L225 265M129 856L472 856L472 767L129 767L129 856Z"  horiz-adv-x="605" vert-adv-y="1000"  />

      
      <glyph glyph-name="uni0101" unicode="&#x0101;" d="M54 471Q94 489 149 499.50Q204 510 264 510Q316 510 351 497.50Q386 485 406.50 462Q427 439 435.50 407Q444 375 444 335Q444 291 441 246.50Q438 202 437.50 159Q437 116 440 75.50Q443 35 455-1L349-1L328 68L323 68Q303 37 267.50 14.50Q232-8 176-8Q141-8 113 2.50Q85 13 65 32.50Q45 52 34 78.50Q23 105 23 138Q23 184 43.50 215.50Q64 247 102.50 266.50Q141 286 194.50 293.50Q248 301 314 298Q321 354 306 378.50Q291 403 239 403Q200 403 156.50 395Q113 387 85 374L54 471M219 99Q258 99 281 116.50Q304 134 315 154L315 219Q284 222 255.50 220Q227 218 205 211Q183 204 170 191Q157 178 157 158Q157 130 173.50 114.50Q190 99 219 99M91 658L414 658L414 566L91 566L91 658Z"  horiz-adv-x="496" vert-adv-y="1000"  />

      
      <glyph glyph-name="uni0102" unicode="&#x0102;" d="M405 155L190 155L137 0L0 0L252 705L353 705L605 0L461 0L405 155M225 265L375 265L323 421L302 531L297 531L276 420L225 265M164 875Q184 849 222 835Q260 821 307 821Q355 821 389.50 836Q424 851 444 875L493 843Q481 814 461 793Q441 772 416 758Q391 744 362.50 737Q334 730 306 730Q279 730 250.50 736Q222 742 196 754.50Q170 767 148 787.50Q126 808 112 838L164 875Z"  horiz-adv-x="605" vert-adv-y="1000"  />

      
      <glyph glyph-name="uni0103" unicode="&#x0103;" d="M54 471Q94 489 149 499.50Q204 510 264 510Q316 510 351 497.50Q386 485 406.50 462Q427 439 435.50 407Q444 375 444 335Q444 291 441 246.50Q438 202 437.50 159Q437 116 440 75.50Q443 35 455-1L349-1L328 68L323 68Q303 37 267.50 14.50Q232-8 176-8Q141-8 113 2.50Q85 13 65 32.50Q45 52 34 78.50Q23 105 23 138Q23 184 43.50 215.50Q64 247 102.50 266.50Q141 286 194.50 293.50Q248 301 314 298Q321 354 306 378.50Q291 403 239 403Q200 403 156.50 395Q113 387 85 374L54 471M219 99Q258 99 281 116.50Q304 134 315 154L315 219Q284 222 255.50 220Q227 218 205 211Q183 204 170 191Q157 178 157 158Q157 130 173.50 114.50Q190 99 219 99M143 720Q160 690 190.50 675.50Q221 661 255 661Q289 661 317.50 676Q346 691 361 720L421 693Q418 669 404.50 645.50Q391 622 369 604Q347 586 317.50 575Q288 564 254 564Q188 564 141 597.50Q94 631 80 688L143 720Z"  horiz-adv-x="496" vert-adv-y="1000"  />

      
      <glyph glyph-name="uni0104" unicode="&#x0104;" d="M405 155L190 155L137 0L0 0L252 705L353 705L605 0L584 0Q526-22 526-73Q526-99 548-111.50Q570-124 610-104L629-166Q614-178 581.50-189.50Q549-201 514-201Q458-201 428.50-176Q399-151 399-110Q399-72 422-44.50Q445-17 486 0L461 0L405 155M225 265L375 265L323 421L302 531L297 531L276 420L225 265Z"  horiz-adv-x="605" vert-adv-y="1000"  />

      
      <glyph glyph-name="uni0105" unicode="&#x0105;" d="M54 466Q92 487 143.50 498.50Q195 510 264 510Q316 510 351 497.50Q386 485 406.50 462Q427 439 435.50 407Q444 375 444 335Q444 291 441 246.50Q438 202 437.50 159Q437 116 440 75.50Q443 35 455-1L432-1Q376-25 376-73Q376-99 398-111.50Q420-124 460-104L479-166Q464-178 431.50-189.50Q399-201 364-201Q308-201 278.50-176Q249-151 249-110Q249-70 275.50-41.50Q302-13 347 4L328 68L323 68Q303 37 267.50 14.50Q232-8 176-8Q141-8 113 2.50Q85 13 65 32.50Q45 52 34 78.50Q23 105 23 138Q23 184 43.50 215.50Q64 247 102 266.50Q140 286 193.50 293.50Q247 301 313 298Q320 354 305.50 378.50Q291 403 239 403Q200 403 159.50 394.50Q119 386 88 372L54 466M219 99Q258 99 281 116.50Q304 134 315 154L315 219Q284 222 255.50 220Q227 218 205 211Q183 204 170 191Q157 178 157 158Q157 130 173.50 114.50Q190 99 219 99Z"  horiz-adv-x="496" vert-adv-y="1000"  />

      
      <glyph glyph-name="uni0106" unicode="&#x0106;" d="M534 29Q502 6 452.50-4Q403-14 351-14Q288-14 231.50 5.50Q175 25 132 68.50Q89 112 63.50 181.50Q38 251 38 350Q38 453 66.50 522.50Q95 592 140.50 634.50Q186 677 242 695.50Q298 714 354 714Q414 714 455.50 706Q497 698 524 687L497 571Q474 582 442.50 587Q411 592 366 592Q283 592 232.50 533Q182 474 182 350Q182 296 194 251.50Q206 207 230.50 175.50Q255 144 291.50 126.50Q328 109 376 109Q421 109 452 118Q483 127 506 141L534 29M376 870L535 870L535 840L375 752L272 752L376 870Z"  horiz-adv-x="559" vert-adv-y="1000"  />

      
      <glyph glyph-name="uni0107" unicode="&#x0107;" d="M411 31Q381 9 338.50-2.50Q296-14 251-14Q191-14 149.50 5Q108 24 82 58.50Q56 93 44.50 142Q33 191 33 250Q33 377 90 445.50Q147 514 256 514Q311 514 344.50 505Q378 496 405 482L374 376Q351 387 328.50 393Q306 399 277 399Q223 399 195 363.50Q167 328 167 250Q167 218 174 191Q181 164 195 144Q209 124 231.50 112.50Q254 101 284 101Q317 101 340 109.50Q363 118 381 130L411 31M250 720L382 720L382 690L271 566L197 566L250 720Z"  horiz-adv-x="433" vert-adv-y="1000"  />

      
      <glyph glyph-name="uni0108" unicode="&#x0108;" d="M534 29Q502 6 452.50-4Q403-14 351-14Q288-14 231.50 5.50Q175 25 132 68.50Q89 112 63.50 181.50Q38 251 38 350Q38 453 66.50 522.50Q95 592 140.50 634.50Q186 677 242 695.50Q298 714 354 714Q414 714 455.50 706Q497 698 524 687L497 571Q474 582 442.50 587Q411 592 366 592Q283 592 232.50 533Q182 474 182 350Q182 296 194 251.50Q206 207 230.50 175.50Q255 144 291.50 126.50Q328 109 376 109Q421 109 452 118Q483 127 506 141L534 29M288 870L384 870L511 777L511 738L412 738L355 779L335 813L314 780L252 738L155 738L155 778L288 870Z"  horiz-adv-x="559" vert-adv-y="1000"  />

      
      <glyph glyph-name="uni0109" unicode="&#x0109;" d="M411 31Q381 9 338.50-2.50Q296-14 251-14Q191-14 149.50 5Q108 24 82 58.50Q56 93 44.50 142Q33 191 33 250Q33 377 90 445.50Q147 514 256 514Q311 514 344.50 505Q378 496 405 482L374 376Q351 387 328.50 393Q306 399 277 399Q223 399 195 363.50Q167 328 167 250Q167 218 174 191Q181 164 195 144Q209 124 231.50 112.50Q254 101 284 101Q317 101 340 109.50Q363 118 381 130L411 31M204 732L290 732L401 550L298 550L259 616L242 665L225 616L180 550L81 550L204 732Z"  horiz-adv-x="433" vert-adv-y="1000"  />

      
      <glyph glyph-name="uni010C" unicode="&#x010C;" d="M534 29Q502 6 452.50-4Q403-14 351-14Q288-14 231.50 5.50Q175 25 132 68.50Q89 112 63.50 181.50Q38 251 38 350Q38 453 66.50 522.50Q95 592 140.50 634.50Q186 677 242 695.50Q298 714 354 714Q414 714 455.50 706Q497 698 524 687L497 571Q474 582 442.50 587Q411 592 366 592Q283 592 232.50 533Q182 474 182 350Q182 296 194 251.50Q206 207 230.50 175.50Q255 144 291.50 126.50Q328 109 376 109Q421 109 452 118Q483 127 506 141L534 29M386 737L292 737L165 831L165 870L270 870L323 825L342 795L363 824L419 870L519 870L519 830L386 737Z"  horiz-adv-x="559" vert-adv-y="1000"  />

      
      <glyph glyph-name="uni010D" unicode="&#x010D;" d="M411 31Q381 9 338.50-2.50Q296-14 251-14Q191-14 149.50 5Q108 24 82 58.50Q56 93 44.50 142Q33 191 33 250Q33 377 90 445.50Q147 514 256 514Q311 514 344.50 505Q378 496 405 482L374 376Q351 387 328.50 393Q306 399 277 399Q223 399 195 363.50Q167 328 167 250Q167 218 174 191Q181 164 195 144Q209 124 231.50 112.50Q254 101 284 101Q317 101 340 109.50Q363 118 381 130L411 31M286 550L195 550L80 732L190 732L229 666L245 617L263 666L308 732L409 732L286 550Z"  horiz-adv-x="433" vert-adv-y="1000"  />

      
      <glyph glyph-name="uni010E" unicode="&#x010E;" d="M60 700Q81 703 107.50 705Q134 707 162 708Q190 709 216.50 709.50Q243 710 264 710Q357 710 423 684Q489 658 530 611Q571 564 590 499Q609 434 609 356Q609 285 591 219Q573 153 531 102Q489 51 420.50 20Q352-11 251-11Q235-11 208.50-10Q182-9 153.50-7.50Q125-6 99-4.50Q73-3 60-1L60 700M275 588Q253 588 230.50 587Q208 586 197 584L197 115Q201 114 210.50 113.50Q220 113 231 112.50Q242 112 252 111.50Q262 111 267 111Q325 111 363.50 131.50Q402 152 424.50 186Q447 220 456 264.50Q465 309 465 356Q465 397 457 438.50Q449 480 427.50 513Q406 546 369 567Q332 588 275 588M328 737L234 737L107 831L107 870L212 870L265 825L284 795L305 824L361 870L461 870L461 830L328 737Z"  horiz-adv-x="647" vert-adv-y="1000"  />

      
      <glyph glyph-name="uni010F" unicode="&#x010F;" d="M482 176Q482 134 483 92Q484 50 492-1L399-1L381 64L377 64Q357 29 319.50 7.50Q282-14 231-14Q137-14 85 48Q33 110 33 242Q33 370 91 441Q149 512 261 512Q292 512 312 508.50Q332 505 352 497L352 700L482 700L482 176M261 96Q299 96 321 114.50Q343 133 352 168L352 380Q338 391 321 396.50Q304 402 277 402Q222 402 194.50 365Q167 328 167 238Q167 174 189.50 135Q212 96 261 96M655 700Q653 671 643 639.50Q633 608 619.50 579.50Q606 551 591 528.50Q576 506 564 496L506 527Q523 563 532 608.50Q541 654 541 700L655 700Z"  horiz-adv-x="639" vert-adv-y="1000"  />

      
      <glyph glyph-name="uni0110" unicode="&#x0110;" d="M-6 401L82 401L82 700Q103 703 129.50 705Q156 707 184 708Q212 709 238.50 709.50Q265 710 286 710Q379 710 445 684Q511 658 552 611Q593 564 612 499Q631 434 631 356Q631 285 613 219Q595 153 553 102Q511 51 442.50 20Q374-11 273-11Q257-11 230.50-10Q204-9 175.50-7.50Q147-6 121-4.50Q95-3 82-1L82 321L-6 321L-6 401M297 588Q275 588 252.50 587Q230 586 219 584L219 401L359 401L359 321L219 321L219 114Q223 113 232.50 112.50Q242 112 253 111.50Q264 111 274 111Q284 111 289 111Q347 111 385.50 131.50Q424 152 446.50 186Q469 220 478 264.50Q487 309 487 356Q487 397 479 438.50Q471 480 449.50 513Q428 546 391 567Q354 588 297 588Z"  horiz-adv-x="669" vert-adv-y="1000"  />

      
      <glyph glyph-name="uni0111" unicode="&#x0111;" d="M482 641L558 641L558 561L482 561L482 176Q482 134 483 92Q484 50 492-1L399-1L381 64L377 64Q357 29 319.50 7.50Q282-14 231-14Q137-14 85 48Q33 110 33 242Q33 370 91 441Q149 512 261 512Q292 512 312 508.50Q332 505 352 497L352 561L204 561L204 641L352 641L352 700L482 700L482 641M261 96Q299 96 321 114.50Q343 133 352 168L352 380Q338 391 321 396.50Q304 402 277 402Q222 402 194.50 365Q167 328 167 238Q167 174 189.50 135Q212 96 261 96Z"  horiz-adv-x="550" vert-adv-y="1000"  />

      
      <glyph glyph-name="uni0112" unicode="&#x0112;" d="M60 700L475 700L475 578L197 578L197 415L450 415L450 293L197 293L197 122L480 122L480 0L60 0L60 700M95 856L438 856L438 767L95 767L95 856Z"  horiz-adv-x="522" vert-adv-y="1000"  />

      
      <glyph glyph-name="uni0113" unicode="&#x0113;" d="M457 43Q427 19 375.50 2.50Q324-14 266-14Q145-14 89 56.50Q33 127 33 250Q33 382 96 448Q159 514 273 514Q311 514 347 504Q383 494 411 471Q439 448 456 409Q473 370 473 312Q473 291 470.50 267Q468 243 463 217L163 217Q166 154 195.50 122Q225 90 291 90Q332 90 364.50 102.50Q397 115 414 128L457 43M271 410Q220 410 195.50 379.50Q171 349 166 298L352 298Q356 352 335.50 381Q315 410 271 410M97 658L420 658L420 566L97 566L97 658Z"  horiz-adv-x="508" vert-adv-y="1000"  />

      
      <glyph glyph-name="uni0116" unicode="&#x0116;" d="M60 700L475 700L475 578L197 578L197 415L450 415L450 293L197 293L197 122L480 122L480 0L60 0L60 700M191 799Q191 824 212.50 842Q234 860 277 860Q320 860 343 842Q366 824 366 799Q366 773 343 755Q320 737 277 737Q234 737 212.50 755Q191 773 191 799Z"  horiz-adv-x="522" vert-adv-y="1000"  />

      
      <glyph glyph-name="uni0117" unicode="&#x0117;" d="M457 43Q427 19 375.50 2.50Q324-14 266-14Q145-14 89 56.50Q33 127 33 250Q33 382 96 448Q159 514 273 514Q311 514 347 504Q383 494 411 471Q439 448 456 409Q473 370 473 312Q473 291 470.50 267Q468 243 463 217L163 217Q166 154 195.50 122Q225 90 291 90Q332 90 364.50 102.50Q397 115 414 128L457 43M271 410Q220 410 195.50 379.50Q171 349 166 298L352 298Q356 352 335.50 381Q315 410 271 410M186 641Q186 670 207.50 690.50Q229 711 267 711Q305 711 328.50 690.50Q352 670 352 641Q352 612 328.50 592.50Q305 573 267 573Q229 573 207.50 592.50Q186 612 186 641Z"  horiz-adv-x="508" vert-adv-y="1000"  />

      
      <glyph glyph-name="uni0118" unicode="&#x0118;" d="M60 700L475 700L475 578L197 578L197 415L450 415L450 293L197 293L197 122L480 122L480 0L453 0Q395-22 395-73Q395-91 406-103.50Q417-116 437-116Q455-116 479-104L498-166Q483-178 450.50-189.50Q418-201 383-201Q327-201 297.50-176Q268-151 268-110Q268-72 291-44.50Q314-17 355 0L60 0L60 700Z"  horiz-adv-x="522" vert-adv-y="1000"  />

      
      <glyph glyph-name="uni0119" unicode="&#x0119;" d="M457 43Q432 23 391 8Q343-23 343-68Q343-81 349-91.50Q355-102 365.50-108Q376-114 391.50-113.50Q407-113 427-103L446-165Q431-177 399-189Q367-201 332-201Q275-201 245.50-173.50Q216-146 216-105Q216-77 228-54Q240-31 262-14Q144-13 89 56Q33 127 33 250Q33 382 96 448Q159 514 273 514Q311 514 347 504Q383 494 411 471Q439 448 456 409Q473 370 473 312Q473 291 470.50 267Q468 243 463 217L163 217Q166 154 195.50 122Q225 90 291 90Q332 90 364.50 102.50Q397 115 414 128L457 43M271 410Q220 410 195.50 379.50Q171 349 166 298L352 298Q356 352 335.50 381Q315 410 271 410Z"  horiz-adv-x="508" vert-adv-y="1000"  />

      
      <glyph glyph-name="uni011A" unicode="&#x011A;" d="M60 700L475 700L475 578L197 578L197 415L450 415L450 293L197 293L197 122L480 122L480 0L60 0L60 700M308 737L214 737L87 831L87 870L192 870L245 825L264 795L285 824L341 870L441 870L441 830L308 737Z"  horiz-adv-x="522" vert-adv-y="1000"  />

      
      <glyph glyph-name="uni011B" unicode="&#x011B;" d="M457 43Q427 19 375.50 2.50Q324-14 266-14Q145-14 89 56.50Q33 127 33 250Q33 382 96 448Q159 514 273 514Q311 514 347 504Q383 494 411 471Q439 448 456 409Q473 370 473 312Q473 291 470.50 267Q468 243 463 217L163 217Q166 154 195.50 122Q225 90 291 90Q332 90 364.50 102.50Q397 115 414 128L457 43M271 410Q220 410 195.50 379.50Q171 349 166 298L352 298Q356 352 335.50 381Q315 410 271 410M304 550L213 550L98 732L208 732L247 666L263 617L281 666L326 732L427 732L304 550Z"  horiz-adv-x="508" vert-adv-y="1000"  />

      
      <glyph glyph-name="uni011C" unicode="&#x011C;" d="M307 365L568 365L568 53Q526 18 467.50 2Q409-14 352-14Q285-14 227.50 7Q170 28 128 72.50Q86 117 62 186Q38 255 38 350Q38 449 66.50 518.50Q95 588 141.50 631.50Q188 675 246 694.50Q304 714 364 714Q424 714 469.50 705Q515 696 542 686L514 571Q489 581 458 586.50Q427 592 379 592Q336 592 300 579Q264 566 237.50 536.50Q211 507 196.50 461Q182 415 182 349Q182 286 196 240.50Q210 195 235 165.50Q260 136 293.50 122Q327 108 365 108Q391 108 416 114.50Q441 121 458 134L458 266L307 282L307 365M303 870L399 870L526 777L526 738L427 738L370 779L350 813L329 780L267 738L170 738L170 778L303 870Z"  horiz-adv-x="609" vert-adv-y="1000"  />

      
      <glyph glyph-name="uni011D" unicode="&#x011D;" d="M480 0Q480-109 421-160.50Q362-212 256-212Q184-212 142.50-202Q101-192 80-181L107-78Q130-87 160.50-96Q191-105 236-105Q304-105 328.50-75.50Q353-46 353 7L353 39L349 39Q314-8 225-8Q128-8 80.50 52Q33 112 33 240Q33 374 97 443Q161 512 283 512Q347 512 397.50 503Q448 494 480 482L480 0M260 96Q298 96 318.50 113Q339 130 350 164L350 389Q319 402 273 402Q223 402 195 364.50Q167 327 167 245Q167 172 191 134Q215 96 260 96M238 732L324 732L435 550L332 550L293 616L276 665L259 616L214 550L115 550L238 732Z"  horiz-adv-x="536" vert-adv-y="1000"  />

      
      <glyph glyph-name="uni011E" unicode="&#x011E;" d="M307 365L568 365L568 53Q526 18 467.50 2Q409-14 352-14Q285-14 227.50 7Q170 28 128 72.50Q86 117 62 186Q38 255 38 350Q38 449 66.50 518.50Q95 588 141.50 631.50Q188 675 246 694.50Q304 714 364 714Q424 714 469.50 705Q515 696 542 686L514 571Q489 581 458 586.50Q427 592 379 592Q336 592 300 579Q264 566 237.50 536.50Q211 507 196.50 461Q182 415 182 349Q182 286 196 240.50Q210 195 235 165.50Q260 136 293.50 122Q327 108 365 108Q391 108 416 114.50Q441 121 458 134L458 266L307 282L307 365M196 875Q216 849 254 835Q292 821 339 821Q387 821 421.50 836Q456 851 476 875L525 843Q513 814 493 793Q473 772 448 758Q423 744 394.50 737Q366 730 338 730Q311 730 282.50 736Q254 742 228 754.50Q202 767 180 787.50Q158 808 144 838L196 875Z"  horiz-adv-x="609" vert-adv-y="1000"  />

      
      </font>
</defs>
</svg>
